<?xml version="1.0" standalone="no"?>
<!DOCTYPE svg PUBLIC "-//W3C//DTD SVG 1.1//EN" "http://www.w3.org/Graphics/SVG/1.1/DTD/svg11.dtd">
<svg xmlns="http://www.w3.org/2000/svg">
<metadata>Copyright (C) 2020 by original authors @ fontello.com</metadata>
<defs>
<font id="eadd" horiz-adv-x="1000" >
<font-face font-family="eadd" font-weight="400" font-stretch="normal" units-per-em="1000" ascent="850" descent="-150" />
<missing-glyph horiz-adv-x="1000" />
<glyph glyph-name="360imagerotator" unicode="&#xe800;" d="M850 431v179s0 0 0 0v0a10 10 0 0 1 0 1h0a13 13 0 0 1-7 11l-337 161a13 13 0 0 1-12 0l-337-161 0 0a4 4 0 0 1-1-1 2 2 0 0 1 0 0 8 8 0 0 1-1 0l-1-1a8 8 0 0 1 0 0c0-1-1-1-1-1s0-1 0-1l-1-1 0 0c-1 0-1-1-1-1s0 0 0-1l-1-1 0 0c0-1 0-1 0-1s0-1 0-1a9 9 0 0 1 0-1 6 6 0 0 1 0-1v0s0 0 0 0v-181l-1 1c-96-56-149-132-149-214s53-158 149-215c94-55 219-86 351-86s257 31 351 86c96 57 149 133 149 215 0 82-53 158-150 215z m-26 156v-371l-315-186v383l299 166z m-648 0l307-171v-386l-307 186z m324 170l308-148-13-7-297-163-306 170z m0-815c-261 0-474 123-474 274 0 68 44 133 124 184v-191a13 13 0 0 1 6-12l333-201 0 0a0 0 0 0 0 1 0c0-1 0-1 0-1l1 0c0 0 1 0 1 0l1-1 1 0 0 0a13 13 0 0 1 2 0 12 12 0 0 1 2 0l0 0 1 0 1 0 1 1 1 0 1 0 0 0 0 0 341 202a13 13 0 0 1 7 11v192c79-51 123-116 123-184 0-151-213-274-474-274z" horiz-adv-x="1000" />

<glyph glyph-name="acf-repeater" unicode="&#xe801;" d="M818 432v182h-181v182h-637v-528h182v-182h182v-182h636v528z m-791-137v473h582v-154h-427v-319z m182-182v474h582v-155h-427v-319z m764-181h-582v473h582z" horiz-adv-x="1000" />

<glyph glyph-name="acf-maplocator" unicode="&#xe802;" d="M500 657a134 134 0 1 1 134-134 135 135 0 0 1-134 134z m0-240a106 106 0 1 0 106 106 106 106 0 0 0-106-106z m0 433c-194 0-351-157-351-351 0-189 326-616 340-634l11-15 11 15c14 18 340 445 340 634 0 194-157 351-351 351z m0-953c-58 78-323 442-323 602 0 178 145 323 323 323s323-145 323-323c0-160-265-524-323-602z" horiz-adv-x="1000" />

<glyph glyph-name="before-after" unicode="&#xe803;" d="M0 702v-720h1000v720z m355-26h132v-3l-461-461v135z m-329-293v136l158 157h135z m461 253v-135l-30-29a140 140 0 0 1-90-90l-341-342v135z m-126-298a139 139 0 0 1 39-96l-234-234h-135z m59-112a138 138 0 0 1 67-26v-42l-150-150h-135z m67-104v-114h-113z m13 104a114 114 0 0 0-31 222l1 0 1 1a114 114 0 1 0 29-223z m-353 450l-121-121v121z m827-668h-461v192a139 139 0 0 1 0 278v13l1 1-1 1v183h461z" horiz-adv-x="1000" />

<glyph glyph-name="animatedtext" unicode="&#xe804;" d="M81 464l-81-243h38l21 69h85l21-69h40l-81 243z m54-144h-67l10 33c8 26 16 53 23 81h2c7-28 15-55 23-81z m194-29c-20 0-42-10-58-26h-1l1 34v69h-37v-263h30l3 20h1c17-15 37-24 55-24 42 0 81 36 81 98 0 56-27 92-75 92z m-13-159c-12 0-30 5-45 18v86c17 17 34 24 48 24 33 0 47-24 47-61 0-43-22-67-50-67z m264 136l16-24a112 112 0 0 0-73-28c-57 0-100 35-100 95 0 61 47 95 103 95 29 0 52-11 67-26l-18-23c-15 12-30 19-48 19-39 0-66-26-66-65s27-64 65-64c22 0 40 9 54 21z m171 263l1-31h-1c-15 14-31 22-52 22-42 0-81-37-81-96 0-60 31-94 78-94 22 0 43 12 57 27h1l3-23h31v263h-37z m0-144c-15-17-30-24-46-24-31 0-49 23-49 64 0 39 23 64 51 64 15 0 29-5 44-19z m249-66c0 51-30 85-84 85-49 0-93-35-93-94 0-61 43-96 99-96a129 129 0 0 1 71 22l-13 23c-17-10-33-16-54-16-35 0-62 19-66 56h138a134 134 0 0 1 2 20z m-139 7c5 32 29 50 56 50 29 0 47-17 50-50z" horiz-adv-x="1000" />

<glyph glyph-name="button-calenda" unicode="&#xe805;" d="M714 192h-428v428h82v52a14 14 0 1 0 28 0v-52h90v52a14 14 0 1 0 28 0v-52h90v52a14 14 0 1 0 28 0v-52h82z m-29 399h-53v-41a14 14 0 0 0-28 0v41h-90v-41a14 14 0 1 0-28 0v41h-90v-41a14 14 0 0 0-28 0v41h-53v-370h370z m365-290v-160a127 127 0 0 0-126-127h-847a127 127 0 0 0-127 127v160a127 127 0 0 0 127 126h144v-29h-144a98 98 0 0 1-99-98v-159a98 98 0 0 1 99-98h847a98 98 0 0 1 98 98v160a98 98 0 0 1-98 98h-152v28h152a127 127 0 0 0 126-126z" horiz-adv-x="1000" />

<glyph glyph-name="browsingfiles-list" unicode="&#xe806;" d="M306 300h403a15 15 0 0 1 15 14v378a15 15 0 0 1-5 11h0l-143 143h0a15 15 0 0 1-10 4h-260a15 15 0 0 1-14-15v-521a15 15 0 0 1 14-14z m274 500l93-93h-93z m-259 21h230v-129a15 15 0 0 1 15-15h128v-348h-373z m-91-658a22 22 0 0 0 22 22h497a22 22 0 0 0 0-44h-497a22 22 0 0 0-22 22z m541-145a22 22 0 0 0-22-23h-497a22 22 0 1 0 0 45h497a22 22 0 0 0 22-22z m0-146a22 22 0 0 0-22-22h-497a22 22 0 0 0 0 44h497a22 22 0 0 0 22-22z" horiz-adv-x="1000" />

<glyph glyph-name="button-pdf-1" unicode="&#xe807;" d="M300 419h-153v203h153v76a14 14 0 0 0 14 14h252a14 14 0 0 0 11-4h0l139-139h0a14 14 0 0 0 4-10v-367a14 14 0 0 0-14-14h-392a14 14 0 0 0-14 14z m281 154h90l-90 91z m-252 49h187v-203h-187v-213h362v339h-125a14 14 0 0 0-14 14v125h-223z m-153-174h311v145h-311z m106 90c0-26-19-36-41-36h-11v-33h-27v103h38c22 0 41-8 41-34z m-26 0c0 9-6 12-17 12h-9v-27h10c11 0 16 6 16 15z m126-17c0-36-21-52-51-52h-32v103h30c32 0 53-15 53-51z m-28 0c0 24-11 29-26 29h-2v-59h2c15 0 26 6 26 30z m46-52h28v38h34v22h-34v20h39v23h-66z m650-195v-160a127 127 0 0 0-126-126h-847a127 127 0 0 0-127 126v160a127 127 0 0 0 127 127h144v-29h-144a98 98 0 0 1-99-98v-160a98 98 0 0 1 99-98h847a98 98 0 0 1 98 98v160a98 98 0 0 1-98 98h-152v29h152a127 127 0 0 0 126-127z" horiz-adv-x="1000" />

<glyph glyph-name="button-copy" unicode="&#xe808;" d="M1050 313v-160a127 127 0 0 0-126-127h-847a127 127 0 0 0-127 127v160a127 127 0 0 0 127 126h144v-28h-144a98 98 0 0 1-99-98v-160a98 98 0 0 1 99-98h847a98 98 0 0 1 98 98v160a98 98 0 0 1-98 98h-152v28h152a127 127 0 0 0 126-126z m-762-42v388a14 14 0 0 0 15 15h317a14 14 0 0 0 14-15v-65h64a14 14 0 0 0 14-15v-389a14 14 0 0 0-14-14h-318a14 14 0 0 0-14 14v66h-63a14 14 0 0 0-15 15z m395 294h-288v-360h288z m-366-280h49v294a14 14 0 0 0 14 15h225v51h-288z" horiz-adv-x="1000" />

<glyph glyph-name="carousel-sliders-single-1" unicode="&#xe809;" d="M316 682h-316v-521h316z m-24-498h-268v475h268z m366 498h-316v-521h316z m-24-498h-268v475h268z m50 498v-521h316v521z m293-498h-269v475h269z m-818 170l-68 68 68 67 17-16-52-51 52-51z m670 17l51 51-51 51 16 16 69-67-69-68z m-465-254a49 49 0 1 1 50-50 50 50 0 0 1-50 50z m0-76a26 26 0 1 0 27 26 26 26 0 0 0-27-26z m136 76a49 49 0 1 1 50-50 50 50 0 0 1-50 50z m0-76a26 26 0 1 0 27 26 26 26 0 0 0-27-26z m136 76a49 49 0 1 1 50-50 50 50 0 0 1-50 50z m0-76a26 26 0 1 0 27 26 26 26 0 0 0-27-26z" horiz-adv-x="1000" />

<glyph glyph-name="carousel-sliders-dual" unicode="&#xe80a;" d="M968 232h-936v485h936z m-912 24h888v438h-888z m195-273h-219v211h219z m-195 24h172v164h-172z m434-24h-219v211h219z m-195 24h171v164h-171z m434-24h-219v211h219z m-195 24h171v164h-171z m434-24h-219v211h219z m-196 24h172v164h-172z m-575 393l-52 52 52 52-16 16-69-68 69-69z m696 52l-68 68-17-16 52-52-52-52 17-17z" horiz-adv-x="1000" />

<glyph glyph-name="cursor-1" unicode="&#xe80b;" d="M503 12v-37c-210 0-381 171-381 382s171 381 381 381 381-171 381-381h-36c0 190-155 344-345 344s-344-154-344-344 154-345 344-345z m198 199l125 50-382 156 155-382 52 129 192-192 49 49z" horiz-adv-x="1000" />

<glyph glyph-name="copy-fromto" unicode="&#xe80c;" d="M884 482h-293v211a116 116 0 0 1-116 116h-359a116 116 0 0 1-116-116v-359a116 116 0 0 1 116-116h293v-211a116 116 0 0 1 116-116h359a116 116 0 0 1 116 116v359a116 116 0 0 1-116 116z m-768-238a90 90 0 0 0-90 90v359a90 90 0 0 0 90 90h359a90 90 0 0 0 90-90v-211h-40a116 116 0 0 1-116-116v-122z m858-237a90 90 0 0 0-90-90h-359a90 90 0 0 0-90 90v359a90 90 0 0 0 90 90h359a90 90 0 0 0 90-90z m-214 185v1c15 6 25 26 25 43 0 39-33 49-74 49h-71v-197h77c42 0 77 17 77 58 0 26-15 41-34 46z m-68 53h17c17 0 25-5 25-17s-8-20-25-20h-17z m21-117h-21v42h21c21 0 30-6 30-20s-9-22-30-22z m-449 484l-60-197h54l9 42h55l10-42h55l-60 197z m13-115l3 14c5 19 10 42 14 62h1c5-19 10-43 15-62l3-14z" horiz-adv-x="1000" />

<glyph glyph-name="dynamic-tag-template-1" unicode="&#xe80d;" d="M912 614h-383c-34 0-72 27-84 59l-12 35c-16 44-65 78-112 78h-233a88 88 0 0 1-88-88v-689a88 88 0 0 1 88-89l824-6h1a87 87 0 0 1 87 87v526a88 88 0 0 1-88 87z m59-613a58 58 0 0 0-58-58h0l-825 6h0a59 59 0 0 0-59 60v689a59 59 0 0 0 59 59h233c34 0 73-27 84-59l13-35c15-44 64-78 111-78h383a59 59 0 0 0 59-58z m-291 332a21 21 0 0 0 1-7v-29c0-32-79-58-176-58s-177 26-177 58v29a21 21 0 0 0 1 7c25-21 94-37 176-37s150 16 175 37z m0-86a21 21 0 0 0 1-7v-29c0-32-79-58-176-58s-177 26-177 58v29a21 21 0 0 0 1 7c25-21 94-37 176-37s150 16 175 37z m0-85a21 21 0 0 0 1-7v-29c0-32-79-58-176-58s-177 26-177 58v29a21 21 0 0 0 1 7c25-21 94-37 176-37s150 16 175 37z m1 244v-26c0-28-79-52-176-52s-177 24-177 52v26c0 29 79 52 177 52s176-23 176-52z" horiz-adv-x="1000" />

<glyph glyph-name="do-shortcode-1" unicode="&#xe80e;" d="M0-70h364v148h-216v544h216v148h-364z m28 812h308v-92h-216v-600h216v-92h-308z m608 28v-148h216v-544h-216v-148h364v840z m336-812h-307v92h215v600h-215v92h307z" horiz-adv-x="1000" />

<glyph glyph-name="el-form-pro-act-coookie-1" unicode="&#xe80f;" d="M573 225a11 11 0 0 0-4-14 196 196 0 0 1-27-16c-9-6-18-15-27-24-15-16-32-33-54-40-22-7-44-4-66 0-13 2-26 4-38 4s-24-2-37-4c-13-2-26-4-39-4a86 86 0 0 0-27 4c-22 7-39 24-55 40-9 9-17 18-26 24s-20 12-32 18c-20 10-41 21-55 39s-16 42-20 64c-2 13-4 25-7 36-4 11-9 21-15 32-11 20-21 41-21 65s10 45 21 65c6 11 11 22 15 32 3 11 5 23 7 36 3 22 7 45 20 64s35 29 55 39c12 6 23 11 32 18s17 15 26 25c16 16 33 33 55 40 21 7 44 3 66-1 13-2 25-4 37-4s25 2 38 4c22 4 44 8 66 1 22-7 39-24 54-40 9-10 18-18 27-25s20-12 32-18c20-10 41-20 54-39s17-42 21-64c2-13 3-25 7-36 3-10 9-21 15-32 10-20 21-41 21-65a84 84 0 0 0 0-10 11 11 0 0 0-21 2 59 59 0 0 1 0 8c0 19-9 37-19 55-6 12-12 24-16 36-4 12-6 26-8 39-3 21-6 40-17 55s-28 23-47 33c-11 5-24 12-34 19s-20 18-29 27c-15 15-29 29-47 35-16 5-35 2-56-1-13-3-27-5-41-5s-27 2-40 5c-21 3-40 6-57 1-17-6-31-20-46-35-9-9-18-19-29-27s-23-14-34-20c-19-9-37-18-48-32s-13-34-16-55c-2-13-4-27-8-39-4-12-10-24-16-36-10-18-19-36-19-55s9-36 19-55c6-11 12-23 16-35 4-13 6-27 8-40 3-20 6-40 16-54s29-24 48-33c11-6 24-12 34-20s20-17 29-26c15-16 29-30 46-35 17-6 36-3 57 1 13 2 27 4 40 4s28-2 41-4c21-4 40-7 56-1 18 5 32 19 47 35 9 9 18 18 29 26a214 214 0 0 0 29 17 10 10 0 0 0 14-4z m-296 353a27 27 0 1 1-27-27 27 27 0 0 1 27 27z m233-89a27 27 0 1 1 27 27 27 27 0 0 1-27-27z m-69-34a30 30 0 1 1-30-30 30 30 0 0 1 30 30z m41 185a29 29 0 1 1-29-29 29 29 0 0 1 29 29z m-326-221a45 45 0 1 1 45 44 45 45 0 0 1-45-44z m223-96a45 45 0 1 1 45-45 45 45 0 0 1-45 45z m386-314a41 41 0 0 0-40-41h-90a41 41 0 1 0 0 81h90a41 41 0 0 0 40-40z m-22 0a18 18 0 0 1-18 18h-90a18 18 0 0 1 0-37h90a18 18 0 0 1 18 19z m-149 365a11 11 0 0 1 11-11h372a11 11 0 0 1 0 22h-372a11 11 0 0 1-11-11z m383-43h-372a11 11 0 1 1 0-22h372a11 11 0 0 1 0 22z m-376-47h387v-222h-387z m364-200v73l-66-73z m-342 0h245a6 6 0 0 0 1 1l94 103a11 11 0 0 0 2 2v71h-342z" horiz-adv-x="1000" />

<glyph glyph-name="dynamic-tag-token-1" unicode="&#xe810;" d="M709 433a23 23 0 0 0 2-8v-31c0-36-87-64-194-64s-194 28-194 64v31a23 23 0 0 0 2 8c27-23 103-40 192-40s165 17 192 40z m-192-135c-89 0-165 17-192 41a23 23 0 0 1-2-9v-31c0-35 87-64 194-64s194 29 194 64v31a23 23 0 0 1-2 9c-27-24-103-41-192-41z m0-93c-89 0-165 17-192 40a23 23 0 0 1-2-8v-31c0-35 87-64 194-64s194 28 194 64v31a23 23 0 0 1-2 9c-27-24-103-41-192-41z m0 365c-107 0-194-26-194-57v-28c0-32 87-58 194-58s194 26 194 58v28c0 31-87 57-194 57z m-517 183h281v-108h-173v-590h173v-108h-281z m27-779h227v54h-173v644h173v54h-227z m973 779v-806h-281v108h173v590h-173v108z m-27-27h-227v-54h173v-644h-173v-54h227z" horiz-adv-x="1000" />

<glyph glyph-name="el-form-pro-act-export-1" unicode="&#xe811;" d="M199 187a42 42 0 0 1 42 42c0 193 157 350 350 350a348 348 0 0 0 247-103 42 42 0 0 1 60 59 431 431 0 0 1-307 128c-239 0-434-195-434-434a42 42 0 0 1 42-42z m392 453a409 409 0 0 0 291-120 20 20 0 0 0-28-28 370 370 0 0 1-263 109c-205 0-372-167-372-372a20 20 0 0 0-40 0c0 227 185 411 412 411z m128-590h-91a41 41 0 0 1 0-82h91a41 41 0 1 1 0 82z m0-59h-91a18 18 0 1 0 0 36h91a18 18 0 1 0 0-36z m-120 395h372a11 11 0 1 0 0-23h-372a11 11 0 0 0 0 23z m383-66a11 11 0 0 0-11-11h-372a11 11 0 0 0 0 22h372a11 11 0 0 0 11-11z m-387-258h387v222h-387z m298 22l66 74v-74z m-276 178h342v-72a10 10 0 0 1-2-2l-94-103c0 0 0-1 0-1h-246z m-273-15a42 42 0 0 1-30-12l-115-116-116 116a42 42 0 1 1-59-60l145-145a42 42 0 0 1 60 0l145 145a42 42 0 0 1-30 72z m14-56l-145-145a20 20 0 0 0-28 0l-145 145a20 20 0 0 0 28 28l115-115a22 22 0 0 1 32 0l115 115a20 20 0 0 0 28-28z" horiz-adv-x="1000" />

<glyph glyph-name="el-form-pro-act-csv-1" unicode="&#xe812;" d="M549 192h-76v336h176a10 10 0 0 1 10 7v-106a10 10 0 0 1 21 0v225h-641v-483h510a10 10 0 0 1 0 21z m-97 0h-186v336h186z m-186 441h186v-85h-186z m393-92a10 10 0 0 1-10 7h-176v85h186z m-600-13h186v-336h-186z m648-477h-90a41 41 0 1 1 0-81h90a41 41 0 0 1 0 81z m0-59h-90a18 18 0 0 0 0 36h90a18 18 0 0 0 0-36z m-120 395h372a11 11 0 0 0 0-22h-372a11 11 0 1 0 0 22z m383-66a11 11 0 0 0-11-11h-372a11 11 0 1 0 0 22h372a11 11 0 0 0 11-11z m-387-258h387v222h-387z m298 23l67 73v-73z m-276 177h342v-72a11 11 0 0 1-2-2l-94-103a6 6 0 0 1 0-1h-246z" horiz-adv-x="1000" />

<glyph glyph-name="el-form-pro-act-payments-1" unicode="&#xe813;" d="M541 156a11 11 0 0 0-4-16 331 331 0 0 0-176-50c-183 0-332 149-332 332s149 332 332 332a332 332 0 0 0 332-330 11 11 0 0 0-11-12h0a11 11 0 0 0-11 12 310 310 0 0 1-310 308c-171-1-310-139-310-310s139-310 310-310a309 309 0 0 1 164 47 11 11 0 0 0 16-3z m199-146a41 41 0 0 0-40-41h-91a41 41 0 1 0 0 82h90a41 41 0 0 0 41-41z m-22 0a18 18 0 0 1-18 18h-91a18 18 0 0 1 0-36h90a18 18 0 0 1 19 18z m-149 366a11 11 0 0 1 11-12h371a11 11 0 1 1 0 23h-371a11 11 0 0 1-11-11z m382-44h-371a11 11 0 1 1 0-22h371a11 11 0 1 1 0 22z m-375-47h387v-222h-387z m364-200v74l-66-73z m-342 0h245a6 6 0 0 0 1 1l94 103a11 11 0 0 0 2 2v72h-342z m-275 85v83c-34 5-78 20-109 46l-8 6 55 82 9-5c42-23 70-32 101-32 14 0 22 3 22 5 0 7-30 17-46 22-48 16-122 41-122 115 0 52 37 90 98 103v75h89v-74c35-7 66-23 93-49l8-8-64-69-8 5c-30 18-49 25-75 25-5 0-20-1-21-6 4-5 25-12 41-17 51-16 127-41 127-115 0-53-37-92-101-106v-86z m13 104l10-1v-81h44v83l9 1c58 11 92 43 92 86 0 57-62 77-112 93-32 11-56 19-56 38 0 25 27 29 43 29 31 0 54-9 79-24l36 40a156 156 0 0 1-81 37l-10 1v71h-44v-71l-10-2c-56-9-89-39-89-82 0-58 60-78 107-94 34-11 61-20 61-43 0-24-28-28-44-28-32 0-62 9-103 31l-32-48c31-22 71-33 100-36z" horiz-adv-x="1000" />

<glyph glyph-name="el-form-pro-act-multi-redirects-1" unicode="&#xe814;" d="M702 50h-90a41 41 0 1 1 0-81h90a41 41 0 1 1 0 81z m0-58h-90a18 18 0 1 0 0 36h90a18 18 0 1 0 0-36z m-120 395h372a11 11 0 1 0 0-23h-372a11 11 0 0 0 0 23z m383-66a11 11 0 0 0-11-11h-372a11 11 0 0 0 0 22h372a11 11 0 0 0 11-11z m-387-258h387v222h-387z m298 22l67 73v-73z m-276 178h343v-72a10 10 0 0 1-3-2l-94-103c0 0 0-1 0-1h-246z m-66-74h-174v213l159 159a101 101 0 1 1-15 16l-155-155-155 155a101 101 0 1 1-16-16l160-159v-235h196a11 11 0 1 1 0 22z m-497 451a79 79 0 1 0 78-78 79 79 0 0 0-78 78z" horiz-adv-x="1000" />

<glyph glyph-name="el-form-pro-act-save-1" unicode="&#xe815;" d="M504 162h-365a37 37 0 0 0-38 37v496a37 37 0 0 0 38 37h24v-272h441v272h30a37 37 0 0 0 38-37v-272a11 11 0 0 1 22 0v272a60 60 0 0 1-60 60h-495a60 60 0 0 1-60-60v-496a60 60 0 0 1 60-59h365a11 11 0 0 1 0 22z m78 320h-397v249h227v-158h109v158h61z m90-432h-90a41 41 0 1 1 0-81h90a41 41 0 0 1 0 81z m0-58h-90a18 18 0 1 0 0 36h90a18 18 0 0 0 0-36z m-119 395h371a11 11 0 0 0 0-23h-371a11 11 0 0 0 0 23z m383-66a11 11 0 0 0-12-11h-371a11 11 0 0 0 0 22h371a11 11 0 0 0 12-11z m-388-258h388v222h-388z m298 22l67 74v-74z m-275 178h342v-72a11 11 0 0 1-2-2l-94-103c0 0-1-1-1-1h-245z" horiz-adv-x="1000" />

<glyph glyph-name="el-form-pro-act-pdf-generator-1" unicode="&#xe816;" d="M717 50h-90a41 41 0 0 1 0-81h90a41 41 0 0 1 0 81z m0-58h-90a18 18 0 0 0 0 36h90a18 18 0 0 0 0-36z m-119 395h371a11 11 0 0 0 0-23h-371a11 11 0 1 0 0 23z m382-66a11 11 0 0 0-11-11h-371a11 11 0 1 0 0 22h371a11 11 0 0 0 11-11z m-387-258h387v222h-387z m298 22l67 73v-73z m-275 178h342v-72a11 11 0 0 1-2-2l-94-103a5 5 0 0 1-1-1h-245z m-389 142h225v231h-225v87h281v-156a11 11 0 0 1 11-11h156v-136h22v147a11 11 0 0 1-3 8l-167 167a11 11 0 0 1-8 3h-303a11 11 0 0 1-11-11v-98h-183v-231h183v-279a11 11 0 0 1 11-11h337v22h-326z m303 303l130-130h-130z m-487-93h387v-188h-387z m84-33h-45v-123h33v39h13c26 0 49 13 49 43 0 32-23 41-50 41z m0-58h-12v33h11c12 0 20-5 20-16s-6-17-19-17z m107 58h-36v-123h38c36 0 61 19 61 62s-25 61-63 61z m-2-97h-2v71h2c18 0 32-6 32-35s-14-36-32-36z m78 104h83v-28h-49v-24h42v-28h-42v-46h-33z" horiz-adv-x="1000" />

<glyph glyph-name="el-form-pro-ext-advanced-steps-1" unicode="&#xe817;" d="M632 582h100a121 121 0 1 1 0 21h-100a121 121 0 0 1-240 0h-122a122 122 0 1 1 0-21h122a121 121 0 0 1 240 0z m-447-29h-68v19h24v47h-20v15c13 2 19 4 27 9h18v-71h19z m667 139a100 100 0 1 0-100-100 100 100 0 0 0 100 100z m-340-200a100 100 0 1 0 100 100 100 100 0 0 0-100-100z m188-441h-90a41 41 0 0 1 0-81h90a41 41 0 0 1 0 81z m0-59h-90a18 18 0 0 0 0 36h90a18 18 0 0 0 0-36z m264 384a11 11 0 0 0-12-11h-371a11 11 0 0 0 0 22h371a11 11 0 0 0 12-11z m0-55a11 11 0 0 0-12-11h-371a11 11 0 1 0 0 23h371a11 11 0 0 0 12-12z m-388-258h388v222h-388z m298 23l67 73v-73z m-275 177h342v-72a12 12 0 0 1-2-2l-94-103c0 0-1 0-1 0h-245z m-71 310h18v-20h-69v14c24 19 41 34 41 47 0 8-5 12-13 12-6 0-12-5-17-9l-13 13c10 10 19 15 34 15 19 0 33-12 33-30 0-15-16-31-30-43 5 0 11 1 16 1z m335 6c0 7-5 12-26 12v18c17 0 23 4 23 11 0 6-4 9-12 9-7 0-12-3-19-8l-13 15a53 53 0 0 0 33 13c23 0 38-10 38-27 0-10-7-17-18-21v-1c12-3 21-11 21-23 0-18-19-28-40-28-16 0-29 5-36 14l11 16c7-5 15-9 22-9 10 0 16 3 16 9z" horiz-adv-x="1000" />

<glyph glyph-name="el-form-pro-act-send-custom-mail-1" unicode="&#xe818;" d="M350 387l109 77 64-70a11 11 0 1 1 17 15l-63 68 165 117a16 16 0 0 0 1-6v-167a11 11 0 0 1 22 0v167a39 39 0 0 1-39 39h-553a39 39 0 0 1-39-39v-291a39 39 0 0 1 39-39h457a11 11 0 0 1 0 22h-457l184 172z m-87 88h0l-183 130h539l-269-191z m-207-179c0 0 0 0 0 1v291a16 16 0 0 0 1 6l182-129z m643-247h-91a41 41 0 1 1 0-82h91a41 41 0 1 1 0 82z m0-59h-91a18 18 0 1 0 0 36h91a18 18 0 1 0 0-36z m-120 395h372a11 11 0 1 0 0-23h-372a11 11 0 1 0 0 23z m383-66a11 11 0 0 0-11-11h-372a11 11 0 0 0 0 22h372a11 11 0 0 0 11-11z m-387-258h387v222h-387z m298 22l66 73v-73z m-276 178h342v-72a11 11 0 0 1-2-2l-94-103c0 0 0-1-1-1h-245z" horiz-adv-x="1000" />

<glyph glyph-name="el-form-pro-ext-icons-1" unicode="&#xe819;" d="M533 150a11 11 0 0 0-4-15 332 332 0 0 0-168-45c-183 0-332 149-332 332s149 332 332 332c176 0 321-138 331-313a11 11 0 1 0-22-1c-9 163-145 291-309 291-171 0-310-138-310-309s139-310 310-310a310 310 0 0 1 156 42 11 11 0 0 0 16-4z m207-140a41 41 0 0 0-40-41h-91a41 41 0 1 0 0 82h90a41 41 0 0 0 41-41z m-22 0a18 18 0 0 1-18 18h-91a18 18 0 0 1 0-36h90a18 18 0 0 1 19 18z m-149 366a11 11 0 0 1 11-12h371a11 11 0 1 1 0 23h-371a11 11 0 0 1-11-11z m382-44h-371a11 11 0 1 1 0-22h371a11 11 0 1 1 0 22z m-375-47h387v-222h-387z m364-200v74l-66-73z m-342 0h245c0 1 1 1 1 1l94 103a11 11 0 0 0 2 2v72h-342z m-28 393l-119-86 45-139a11 11 0 0 0-17-12l-118 86-119-86a11 11 0 0 0-17 12l45 139-118 86a11 11 0 0 0 6 21h147l45 139a11 11 0 0 0 21 0l46-139h146a11 11 0 0 0 7-21z m-41-2h-120a11 11 0 0 0-11 8l-37 114-37-114a11 11 0 0 0-11-8h-120l97-70a11 11 0 0 0 4-13l-37-114 97 71a11 11 0 0 0 13 0l97-71-37 114a11 11 0 0 0 4 13z" horiz-adv-x="1000" />

<glyph glyph-name="acf-fields" unicode="&#xe81a;" d="M960 633h-920a40 40 0 0 1-40-41v-160a40 40 0 0 1 40-41h920a40 40 0 0 1 40 41v160a40 40 0 0 1-40 41z m14-201a14 14 0 0 0-14-14h-920a14 14 0 0 0-14 14v160a14 14 0 0 0 14 14h920a14 14 0 0 0 14-14z m-949-364h243v243h-243z m26 217h191v-191h-191z m471 26a122 122 0 1 1 122-122 122 122 0 0 1-121 122z m0-217a95 95 0 1 0 96 95 96 96 0 0 0-95-95z m437 148l18-18-104-104-104 104 19 18 85-85z m-389-53a48 48 0 1 0-47 48 48 48 0 0 0 47-48z m-375 38l19-18-68-68-67 68 18 18 49-49z" horiz-adv-x="1000" />

<glyph glyph-name="el-form-pro-target-1" unicode="&#xe81b;" d="M584 460l-300 267a10 10 0 0 1-18-8v-127h-229a10 10 0 0 1-10-11v-258a10 10 0 0 1 10-11h229v-127a10 10 0 0 1 7-10 10 10 0 0 1 4-1 10 10 0 0 1 7 3l300 267a10 10 0 0 1 0 16z m-297-252v115a10 10 0 0 1-10 10h-229v238h229a10 10 0 0 1 10 10v115l275-244z m432-158h-91a41 41 0 0 1 0-82h91a41 41 0 1 1 0 82z m0-59h-91a18 18 0 1 0 0 36h91a18 18 0 1 0 0-36z m-120 395h372a11 11 0 1 0 0-23h-372a11 11 0 0 0 0 23z m383-66a11 11 0 0 0-11-11h-372a11 11 0 0 0 0 22h372a11 11 0 0 0 11-11z m-387-36v-222h387v222z m364-200h-66l66 73z m0 106a10 10 0 0 1-2-2l-94-103c0 0 0-1 0-1h-246v178h342z" horiz-adv-x="1000" />

<glyph glyph-name="el-form-pro-ext-description-1" unicode="&#xe81c;" d="M533 334h-447a36 36 0 0 0-36 36v118a36 36 0 0 0 36 35h26a151 151 0 0 1 246 0h393a36 36 0 0 0 36-35v-47a11 11 0 0 1 22 0v47a58 58 0 0 1-58 58h-380a151 151 0 1 1-272 0h-13a58 58 0 0 1-59-58v-118a58 58 0 0 1 59-59h447a11 11 0 0 1 0 23z m-298 406a129 129 0 1 0-128-129 129 129 0 0 0 128 129z m474-688h-90a41 41 0 0 1 0-81h90a41 41 0 0 1 0 81z m0-59h-90a18 18 0 0 0 0 36h90a18 18 0 0 0 0-36z m-119 395h371a11 11 0 1 0 0-22h-371a11 11 0 1 0 0 22z m382-66a11 11 0 0 0-11-11h-371a11 11 0 0 0 0 22h371a11 11 0 0 0 11-11z m-387-258h387v222h-387z m298 22l67 74v-74z m-275 178h342v-72a11 11 0 0 1-3-2l-94-103c0 0 0 0 0-1h-245z m-196 382a11 11 0 0 0 12 11h379a11 11 0 1 0 0-23h-379a11 11 0 0 0-12 12z m0 54a11 11 0 0 0 12 11h325a11 11 0 1 0 0-23h-325a11 11 0 0 0-12 12z m0-108a11 11 0 0 0 12 11h258a11 11 0 0 0 0-23h-258a11 11 0 0 0-12 12z m-154-41c0-16-12-28-28-28s-29 12-29 28 12 29 29 29 28-12 28-29z m-54 105l-24 22c12 15 30 25 51 25 30 0 55-13 55-43 0-34-40-37-38-66h-39c-5 34 35 43 35 60 0 9-8 13-16 13-10 0-16-5-24-11z" horiz-adv-x="1000" />

<glyph glyph-name="el-form-pro-ext-select2-1" unicode="&#xe81d;" d="M509 129h-341a36 36 0 0 0-36 36v76h377a6 6 0 0 1 0 11h-377v115h377a6 6 0 0 1 0 11h-377v108h632v-48a11 11 0 1 1 22 0v199a58 58 0 0 1-58 58h-560a58 58 0 0 1-58-58v-472a58 58 0 0 1 58-58h341a11 11 0 0 1 0 22z m-341 544h560a36 36 0 0 0 36-36v-128h-632v128a36 36 0 0 0 36 36z m518-624h-90a41 41 0 1 1 0-81h90a41 41 0 1 1 0 81z m0-59h-90a18 18 0 0 0 0 36h90a18 18 0 0 0 0-36z m-120 395h372a11 11 0 1 0 0-22h-372a11 11 0 0 0 0 22z m383-66a11 11 0 0 0-11-11h-372a11 11 0 0 0 0 23h372a11 11 0 0 0 11-12z m-387-258h387v222h-387z m298 23l67 73v-73z m-276 177h343v-72a11 11 0 0 1-3-2l-94-103a6 6 0 0 1 0 0h-246z m-6 344a11 11 0 1 0 16 15l44-43 44 43a11 11 0 0 0 16-15l-60-60z" horiz-adv-x="1000" />

<glyph glyph-name="el-form-pro-ext-images-select-1" unicode="&#xe81e;" d="M470 505l-84-73-171 162-183-194v284h590v-245a11 11 0 1 1 22 0v267h-634v-420h199a100 100 0 0 1 199 0h131a11 11 0 0 1 0 23h-132a100 100 0 0 1-197 0h-178v58l184 195 169-161 84 73 72-81a11 11 0 1 1 17 15z m-161-135a77 77 0 1 0-77-77 77 77 0 0 0 77 77z m144 210a49 49 0 1 1 49 48 49 49 0 0 1-49-48z m75 0a26 26 0 1 0-26 26 26 26 0 0 0 26-26z m-256-287a37 37 0 1 0 37-36 37 37 0 0 0-37 36z m454-244h-90a41 41 0 1 1 0-81h90a41 41 0 1 1 0 81z m0-59h-90a18 18 0 1 0 0 37h90a18 18 0 1 0 0-37z m-120 396h372a11 11 0 1 0 0-23h-372a11 11 0 0 0 0 23z m383-66a11 11 0 0 0-11-11h-372a11 11 0 0 0 0 22h372a11 11 0 0 0 11-11z m-387-258h387v222h-387z m298 22l67 73v-73z m-276 177h343v-71a11 11 0 0 1-3-2l-94-103c0 0 0-1 0-1h-246z" horiz-adv-x="1000" />

<glyph glyph-name="extension-display-1" unicode="&#xe81f;" d="M500 850c-210 0-381-171-381-380v-620h14c38 0 57 32 73 60 17 28 28 46 49 46s32-18 49-46c16-28 35-60 73-60s57 32 74 60c16 28 28 46 49 46s32-18 49-46c16-28 34-60 73-60s57 32 73 60c17 28 28 46 49 46s33-18 49-46c17-28 35-60 74-60h14l0 620c0 209-171 380-381 380z m353-969c-13 6-23 21-35 43-16 28-35 60-74 60s-57-32-73-60c-17-29-28-46-49-46s-32 17-49 46c-16 28-35 60-73 60s-57-32-74-60c-16-29-28-46-49-46s-32 17-49 46c-16 28-34 60-73 60s-57-32-73-60c-13-21-22-37-35-43v589c0 194 158 352 353 352s353-158 353-352z m-115 589a14 14 0 0 0-14-14h-164a14 14 0 1 0 0 28h164a14 14 0 0 0 14-14z m-300 0a81 81 0 1 0-81 80 81 81 0 0 0 81-80z" horiz-adv-x="1000" />

<glyph glyph-name="extensiion-editor-1" unicode="&#xe820;" d="M893 832h-785a108 108 0 0 1-108-107v-564a108 108 0 0 1 108-108h294v-172a14 14 0 0 1 13-13h171a14 14 0 0 1 14 13v82c0 0 0 0 0 1v89h293a108 108 0 0 1 107 108v564a108 108 0 0 1-107 107z m-785-27h785a80 80 0 0 0 80-80v-79h-946v79a80 80 0 0 0 81 80z m357-344h71l29-60h-128z m-36-88h144v-305c0-1 0-1 0-1s0-1 0-1v-89h-144z m144-478h-144v55h144z m320 186h-293v306a14 14 0 0 1-2 6l-85 182a14 14 0 0 1-25 0l-85-182 0-1 0 0a14 14 0 0 1-1-2 3 3 0 0 1 0 0 14 14 0 0 1 0-3s0 0 0 0v-306h-294a80 80 0 0 0-80 80v457h945v-457a80 80 0 0 0-80-80z" horiz-adv-x="1000" />

<glyph glyph-name="gallery-grid-flex-1" unicode="&#xe821;" d="M29 530h282v282h-282z m27 256h228v-229h-228z m303-256h282v282h-282z m27 256h228v-229h-228z m303 26v-282h282v282z m255-255h-228v229h228z m-915-348h282v282h-282z m27 255h228v-228h-228z m303-255h282v282h-282z m27 255h228v-228h-228z m303-255h282v282h-282z m27 255h228v-228h-228z m-687-576h282v282h-282z m27 255h228v-229h-228z m303-255h282v282h-282z m27 255h228v-229h-228z m303-255h282v282h-282z m27 255h228v-229h-228z" horiz-adv-x="1000" />

<glyph glyph-name="frontend-inspector-1" unicode="&#xe822;" d="M983 367h-121c-8 186-159 337-345 345v121a17 17 0 1 1-34 0v-121c-186-8-336-159-345-345h-121a17 17 0 1 1 0-34h121c9-186 159-337 345-345v-121a17 17 0 1 1 34 0v121c186 8 337 159 345 345h121a17 17 0 0 1 0 34z m-342-34h188a330 330 0 0 0-312-312v188a17 17 0 1 1-34 0v-188a330 330 0 0 0-312 312h188a17 17 0 1 1 0 34h-188a329 329 0 0 0 312 312v-188a17 17 0 1 1 34 0v188a330 330 0 0 0 312-312h-188a17 17 0 1 1 0-34z" horiz-adv-x="1000" />

<glyph glyph-name="gallery-grid-justified-1" unicode="&#xe823;" d="M441 609h-441v-246h441z m-21-225h-399v205h399z m311 225v-246h269v246z m248-225h-227v205h227z m-284 225h-218v-246h218z m-21-225h-176v205h176z m3-293h323v246h-323z m21 225h281v-205h-281z m-698-225h210v246h-210z m21 225h169v-205h-169z m226-225h394v246h-394z m20 225h353v-205h-353z" horiz-adv-x="1000" />

<glyph glyph-name="gallery-grid-honeycombs-1" unicode="&#xe824;" d="M293 367l91 159-91 159h-184l-91-159 91-159z m-167 289h150l76-130-76-130h-150l-75 130z m581-289h184l91 159-91 159h-184l-91-159z m17 289h150l76-130-76-130h-150l-75 130z m-317-147l-91-159 91-159h184l91 159-91 159z m167-289h-150l-76 130 76 130h150l75-130z m17 313l91 158-91 159h-184l-91-159 91-158z m-167 289h150l75-131-75-130h-150l-76 130z m-131-479h-184l-91-158 91-159h184l91 159z m-17-289h-150l-75 131 75 130h150l76-130z m431 289l-91-158 91-159h184l91 159-91 158z m167-289h-150l-75 131 75 130h150l76-130z m-467 114l-91-159 91-159h184l91 159-91 159z m167-290h-150l-76 131 76 130h150l75-130z" horiz-adv-x="1000" />

<glyph glyph-name="hamburger-offcanvas-menu-1" unicode="&#xe825;" d="M0-69v838h1000v-838z m968 31v776h-372v-776z m-404 0v776h-532v-776z m137 74v30h174v-30z m0 51v30h174v-30z m0 50v30h174v-30z m134 82a25 25 0 1 0 25 25 25 25 0 0 0-25-25z m-95 0a25 25 0 1 0 25 25 25 25 0 0 0-25-25z m-611 70v57h125v-57z m706 22a25 25 0 1 0 25 25 25 25 0 0 0-25-25z m-95 0a25 25 0 1 0 25 25 25 25 0 0 0-25-25z m-611 105v58h239v-58z m659 18a117 117 0 1 0 117 116 117 117 0 0 0-117-116z m0 201a85 85 0 1 1 85-85 85 85 0 0 1-85 85z m0-130a45 45 0 1 0 45 45 45 45 0 0 0-45-45z m-659 39v58h325v-58z" horiz-adv-x="1000" />

<glyph glyph-name="gallery-grid-rombs-1" unicode="&#xe826;" d="M511 177l160 162 160-162-160-163z m160-129l127 129-126 128-127-128z m-502 129l160 162 160-162-160-163z m160-129l126 129-126 128-127-128z m354 301l160 163 160-163-160-162z m160-128l126 128-126 129-127-129z m-503 128l160 163 160-163-160-162z m160-128l127 128-127 129-126-129z m-503 128l160 163 160-163-160-162z m160-128l127 128-127 129-126-129z m354 302l160 163 160-163-160-162z m160-128l127 128-127 129-126-129z m-502 128l160 163 160-163-160-162z m160-128l126 128-126 129-127-129z" horiz-adv-x="1000" />

<glyph glyph-name="heading-widget-masking-1" unicode="&#xe827;" d="M550 412h-77v127h-115v-366h115v136h77v-136h115v366h-115z m25 102h65v-316h-65v135h-127v-135h-65v317h65v-127h127z m365 125v75h-76v-75h-73v-23h-682v-521h805v395h26v75h73v74z m-50-519h-757v472h658v-28h73v-75h26z m98 469h-72v-75h-27v75h-73v26h73v75h27v-75h72z" horiz-adv-x="1000" />

<glyph glyph-name="heading-widget-animations-1" unicode="&#xe828;" d="M655 433h-52v184h-227v-184h-52v184h-156v-519h156v196h53v-196h226v196h52v-196h156v519h-156z m-77 160v-160h-46v160z m-279-274v-197h-106v471h106v-185h77v-89z m279-197h-46v172h46z m102 471h106v-471h-106v197h-173v-197h-106v471h106v-185h173z m257 134v75h-76v-75h-73v-75h73v-75h76v75h73v75z m48-50h-72v-76h-27v76h-73v25h73v75h27v-75h72z" horiz-adv-x="1000" />

<glyph glyph-name="image-widget-effects-1" unicode="&#xe829;" d="M941 638v74h-75v-74h-72v-22h-714v-515h371l-4-22q-10-46-24-71t-33-26c-3 4-5 8-8 13a99 99 0 0 1-8 11 42 42 0 0 1-11 9 26 26 0 0 1-14 4q-12 0-19-9a30 30 0 0 1-6-19 26 26 0 0 1 10-21q11-9 33-9 41 0 79 36t50 92l3 12h417v389h26v75h71v73z m-49-513h-388l37 174h63l5 23h-64l6 27q11 52 24 74t31 23c3-5 6-9 8-13a83 83 0 0 1 8-12 39 39 0 0 1 11-9 27 27 0 0 1 13-3q14 0 20 8a31 31 0 0 1 6 20 26 26 0 0 1-10 21q-11 9-33 9a99 99 0 0 1-40-10 125 125 0 0 1-38-25 175 175 0 0 1-30-40 184 184 0 0 1-19-53l-4-17h-49l-5-23h50l-37-174h-352v466h689v-26h72v-75h26z m97 464h-72v-74h-27v74h-71v25h71v74h27v-74h72z" horiz-adv-x="1000" />

<glyph glyph-name="heading-widget-outline-1" unicode="&#xe82a;" d="M434 617h-167v-558h167v211h133v-211h167v558h-167v-198h-133z m159-224v198h114v-506h-114v211h-185v-211h-115v506h115v-198z m-70 69h-46v198h-253v-644h253v211h46v-211h254v644h-254z m27 172h200v-592h-200v211h-99v-211h-201v592h201v-198h99z m340 134v81h-83v-81h-78v-80h78v-81h83v81h78v80z m51-54h-78v-81h-29v81h-78v28h78v81h29v-81h78z" horiz-adv-x="1000" />

<glyph glyph-name="image-widget-transformations-1" unicode="&#xe82b;" d="M934 483v73h71v72h-71v73h-74v-73h-70v-22h-240a52 52 0 0 1-102 0h-297a52 52 0 1 1-63-63v-139a52 52 0 0 1 0-102v-139a52 52 0 1 1 63-63h297a52 52 0 0 1 102 0h296a52 52 0 1 1 63 63v139a52 52 0 0 1 0 102v79z m-120 122h70v72h27v-72h70v-25h-70v-73h-27v73h-70z m71-201a52 52 0 0 1 0-102v-139a53 53 0 0 1-39-39h-296a52 52 0 0 1-102 0h-297a53 53 0 0 1-39 39v139a52 52 0 0 1 0 102v139a52 52 0 0 1 39 39h297a52 52 0 0 1 102 0h240v-26h70v-73h25z m-386 13a64 64 0 1 1 64-64 65 65 0 0 1-64 64z m0-104a41 41 0 1 0 40 40 41 41 0 0 0-40-40z" horiz-adv-x="1000" />

<glyph glyph-name="image-widget-masking-1" unicode="&#xe82c;" d="M494 527a173 173 0 1 1 173-173 173 173 0 0 1-173 173z m0-322a149 149 0 1 0 149 149 149 149 0 0 0-149-149z m436 423v73h-75v-73h-70v-22h-702v-506h821v383h26v73h70v72z m-49-505h-774v459h678v-26h70v-73h26z m95 457h-70v-73h-27v73h-70v24h70v73h27v-73h70z" horiz-adv-x="1000" />

<glyph glyph-name="logo-e-add-1" unicode="&#xe82d;" d="M1000 13h-557c-90 0-160 27-211 81-57 61-72 141-75 186l-157 0 0 81 156 0 1 160c0 132 108 240 241 240a241 241 0 1 0 0-481l-160 0c4-34 15-90 54-131 34-36 85-55 151-55h557z m-762 348l160 0a160 160 0 1 1-160 159z" horiz-adv-x="1000" />

<glyph glyph-name="include-file-1" unicode="&#xe82e;" d="M885 579h0l-266 267h0a15 15 0 0 1-11 4h-482a15 15 0 0 1-16-15v-970a15 15 0 0 1 16-15h749a15 15 0 0 1 15 15v703a15 15 0 0 1-5 11z m-262 219l215-214h-215z m236-918h-718v940h452v-252a15 15 0 0 1 15-15h251z m-334 193l151 151a15 15 0 1 0 21-21l-187-188-188 188a15 15 0 0 0 21 21l151-151v426a15 15 0 0 0 31 0z" horiz-adv-x="1000" />

<glyph glyph-name="modals-popup-1" unicode="&#xe82f;" d="M12 850v-1000h977v1000z m944-968h-912v936h912z m-253 701l53 56-52 55a16 16 0 1 0 24 22l51-54 52 54a16 16 0 0 0 23-23l-53-55 52-55a16 16 0 0 0-23-23l-51 55-52-54a16 16 0 0 0-24 22z m-471-283a16 16 0 0 0 16 16h536a16 16 0 0 0 0-32h-536a16 16 0 0 0-16 16z m0-90a16 16 0 0 0 16 17h536a16 16 0 0 0 0-33h-536a16 16 0 0 0-16 16z m0-90a16 16 0 0 0 16 17h536a16 16 0 0 0 0-33h-536a16 16 0 0 0-16 16z" horiz-adv-x="1000" />

<glyph glyph-name="colfix-extension-1" unicode="&#xe830;" d="M298 20h-298v660h298z m-277 21h255v618h-255z m628-21h-298v660h298z m-276 21h255v618h-255z m627-21h-298v660h298z m-276 21h255v618h-255z m-655-161a11 11 0 0 0-11 10v900a11 11 0 1 0 22 0v-900a11 11 0 0 0-11-10z m862 19a11 11 0 0 0-11 11v900a11 11 0 0 0 22 0v-900a11 11 0 0 0-11-11z" horiz-adv-x="1000" />

<glyph glyph-name="logo-nerdsfarm-1" unicode="&#xe831;" d="M1077 505c-7 10-24 15-55 18-27 2-48 4-69 6-40 4-74 8-129 8-111 0-216-3-238-25a82 82 0 0 0-42-23v7a14 14 0 0 1-14 13h-51a14 14 0 0 1-13-13v-10c-25 3-37 11-52 26-22 22-127 25-238 25-54 0-89-4-129-8-21-2-42-4-68-6-32-3-49-8-56-18-5-8-2-17 0-24a34 34 0 0 0 2-9c0-13 6-17 14-24a178 178 0 0 0 16-14c17-17 20-70 20-71a3 3 0 0 1 0 0c20-166 101-200 214-200 114 0 144 25 176 51l5 4c31 25 55 105 68 147 2 6 3 10 4 14 4 12 14 20 24 25v-2a14 14 0 0 1 13-14h52a14 14 0 0 1 13 10 39 39 0 0 0 14-19c1-4 2-8 4-14 13-42 37-122 68-147l5-4c32-26 62-51 176-51 113 0 194 34 214 200 0 0 0 0 0 0 0 1 2 54 20 71a168 168 0 0 0 15 14c9 7 15 11 15 24a34 34 0 0 0 2 9c2 7 5 16 0 24z m-681-178c-20-91-84-138-189-138-4 0-7 0-10 0-129 4-148 47-160 75-1 2-2 4-3 6-12 27-29 122-30 167 0 40 27 48 28 48l0 0c31 11 81 17 141 17 70 0 139-8 177-20 63-19 64-76 46-155z m134 75h-50v93h50z m439-132c0-2-1-4-2-6-12-28-31-71-160-75-3 0-6 0-10 0-105 0-169 47-189 138-18 79-17 136 46 155 38 12 107 20 176 20 61 0 111-6 142-17 1 0 28-8 28-48-1-45-18-140-31-167z" horiz-adv-x="1000" />

<glyph glyph-name="menu-list-1" unicode="&#xe832;" d="M773 165a22 22 0 0 0-22-22h-502a22 22 0 0 0 0 44h502a22 22 0 0 0 22-22z m-22-125h-502a22 22 0 1 1 0-44h502a22 22 0 1 1 0 44z m0-146h-502a22 22 0 1 1 0-45h502a22 22 0 0 1 0 45z m249 767v-162a15 15 0 0 0-15-15h-970a15 15 0 0 0-14 15v162a15 15 0 0 0 14 15h970a15 15 0 0 0 15-15z m-970-147h294v132h-294z m940 132h-294v-132h294z" horiz-adv-x="1000" />

<glyph glyph-name="particles-1" unicode="&#xe833;" d="M298-42l-104-55 20 116-84 81 116 17 52 105 52-105 116-17-84-81 19-116z m67-5l-13 75 55 53-75 11-34 69-34-69-75-11 54-53-13-75 68 36z m249 11l-66-35 12 74-53 52 74 11 32 67 34-67 74-11-54-52 13-74z m-24 48l-6-33 30 16 29-16-5 33 24 24-33 5-15 30-15-30-34-5z m253 28a92 92 0 1 0 65 156 91 91 0 0 0 27-64 92 92 0 0 0-92-92z m0 156a65 65 0 1 1 64-64 64 64 0 0 1-18 45 65 65 0 0 1-46 20z m-326-27a175 175 0 1 0 175 176 176 176 0 0 0-175-176z m0 324a148 148 0 1 1 148-148 148 148 0 0 1-148 148z m222-106l131 130 130-130-130-131z m131-92l92 92-92 92-92-92z m-808-22l-62 108 62 108h125l62-108-62-108z m109 27l46 81-46 81h-93l-47-81 47-81z m654 250a58 58 0 1 0 58 58 58 58 0 0 0-58-58z m0 89a31 31 0 1 1 31-31 31 31 0 0 1-31 31z m-548-79a60 60 0 1 0 59 59 60 60 0 0 0-59-59z m0 91a32 32 0 1 1 32-32 32 32 0 0 1-32 32z m217-81l-46 145 122 88 123-88-47-145z m132 28l35 106-91 66-91-66 35-106z" horiz-adv-x="1000" />

<glyph glyph-name="parallax-1" unicode="&#xe834;" d="M1000 699h-411v-158a275 275 0 0 1-32 2 270 270 0 0 1-190-78l-81 142-286-495h339a271 271 0 0 1 218-111c150 0 271 121 271 271q0 8 0 16h172z m-960-564l246 425 65-113a270 270 0 0 1-28-312z m323 291l168-291h-180a247 247 0 0 0 12 291z m442-154a248 248 0 0 0-437-160h203l-192 332a247 247 0 0 0 178 76 250 250 0 0 0 32-3v-229h215c1-5 1-11 1-16z m-193 241a249 249 0 0 0 190-202h-190z m365-202h-152a272 272 0 0 1-213 226v139h365z" horiz-adv-x="1000" />

<glyph glyph-name="post-prevnext-1" unicode="&#xe835;" d="M413 350a13 13 0 0 0-12-13h-353l125-125a13 13 0 1 0-17-17l-156 155 156 156a13 13 0 0 0 17-18l-125-125h353a13 13 0 0 0 12-13z m432 156a13 13 0 1 1-18-18l125-125h-352a13 13 0 0 1 0-26h352l-125-125a13 13 0 1 1 18-17l155 155z" horiz-adv-x="1000" />

<glyph glyph-name="post-datetime-1" unicode="&#xe836;" d="M0 707v-714h1000v714z m973-687h-946v660h946z m-580 448a67 67 0 1 1-66 66 67 67 0 0 1 66-66z m0 106a40 40 0 1 0-39-40 40 40 0 0 0 39 40z m209-107a67 67 0 1 1-67 66 67 67 0 0 1 67-66z m0 106a40 40 0 1 0-40-40 40 40 0 0 0 40 40z m209-107a67 67 0 1 1-67 67 67 67 0 0 1 67-67z m0 106a40 40 0 1 0-40-39 40 40 0 0 0 40 39z m-689-87l47 47-47 47a14 14 0 1 0 19 19l47-47 46 47a14 14 0 1 0 20-19l-47-47 47-47a14 14 0 1 0-20-19l-46 47-47-47a14 14 0 1 0-19 19z m62-207a67 67 0 1 1-66 66 67 67 0 0 1 66-66z m0 106a40 40 0 1 0-39-40 40 40 0 0 0 39 40z m209-107a67 67 0 1 1-66 66 67 67 0 0 1 66-66z m0 106a40 40 0 1 0-39-40 40 40 0 0 0 39 40z m209-107a67 67 0 1 1-67 66 67 67 0 0 1 67-66z m0 106a40 40 0 1 0-40-40 40 40 0 0 0 40 40z m209-107a67 67 0 1 1-67 67 67 67 0 0 1 67-67z m0 106a40 40 0 1 0-40-39 40 40 0 0 0 40 39z m-627-294a67 67 0 1 1-66 66 67 67 0 0 1 66-66z m0 106a40 40 0 1 0-39-40 40 40 0 0 0 39 40z m209-107a67 67 0 1 1-66 66 67 67 0 0 1 66-66z m0 106a40 40 0 1 0-39-40 40 40 0 0 0 39 40z m209-107a67 67 0 1 1-67 67 67 67 0 0 1 67-67z m0 106a40 40 0 1 0-40-39 40 40 0 0 0 40 39z m209-107a67 67 0 1 1-67 67 67 67 0 0 1 67-67z m0 106a40 40 0 1 0-40-39 40 40 0 0 0 40 39z" horiz-adv-x="1000" />

<glyph glyph-name="post-user-metadata-1" unicode="&#xe837;" d="M455-8a16 16 0 0 0 0-32h-306a16 16 0 0 0 0 32z m379-110h-685a16 16 0 0 1 0-32h685a16 16 0 0 1 0 32z m5 110h-306a16 16 0 1 1 0-32h306a16 16 0 0 1 0 32z m-540 657a201 201 0 1 0 201-201 201 201 0 0 0-201 201z m32 0a169 169 0 1 1 169 169 169 169 0 0 1-169-169z m561-550h-784l4 20a398 398 0 0 0 776 0z m-40 32a366 366 0 0 1-704 0z" horiz-adv-x="1000" />

<glyph glyph-name="post-terms-of-taxonomy-1" unicode="&#xe838;" d="M1000 96l-93 96v479h-388l-93 189h-426v-732h476l278-288z m-246-211l-385 401-11 221 213-11 386-400z m-723 275v668h376l93-189h376v-415l-292 303-258 13 12-268 108-112z m496 267a63 63 0 0 1-92 0 69 69 0 0 1 0-95 63 63 0 0 1 92 0 69 69 0 0 1 0 95z m-22-73a33 33 0 0 0-48 0 36 36 0 0 0 0 50 33 33 0 0 0 48 0 36 36 0 0 0 0-50z" horiz-adv-x="1000" />

<glyph glyph-name="posts-skin-template-1" unicode="&#xe839;" d="M913-82h-1l-824 6a88 88 0 0 0-88 89v689a88 88 0 0 0 88 88h233c47 0 96-34 112-78l12-34c12-32 50-59 84-59h383a88 88 0 0 0 88-88v-526a87 87 0 0 0-87-87z m-825 36l825-7h0a58 58 0 0 1 58 58v526a59 59 0 0 1-59 58h-383c-46 0-95 35-111 79l-13 34c-11 32-50 59-84 59h-233a59 59 0 0 1-59-59v-689a59 59 0 0 1 59-59z m559 542a15 15 0 0 1-14 15h-158a15 15 0 0 1 0-29h158a15 15 0 0 1 14 14z m219-72a15 15 0 0 1-14 14h-377a15 15 0 0 1 0-29h377a15 15 0 0 1 14 15z m0-73a15 15 0 0 1-14 15h-377a15 15 0 0 1 0-29h377a15 15 0 0 1 14 14z m-219-138a15 15 0 0 1-14 14h-158a15 15 0 0 1 0-29h158a15 15 0 0 1 14 15z m219-73a15 15 0 0 1-14 15h-377a15 15 0 0 1 0-29h377a15 15 0 0 1 14 14z m0-72a15 15 0 0 1-14 14h-377a15 15 0 0 1 0-29h377a15 15 0 0 1 14 15z m-465-49h-245v243h245z m-216 29h187v185h-187z m216 258h-245v243h245z m-216 29h187v185h-187z" horiz-adv-x="1000" />

<glyph glyph-name="posts-list-1" unicode="&#xe83a;" d="M745 37h-229l13 99h216a22 22 0 0 1 0 44h-210l29 218h107l-90 281 95 171h-352l95-171-90-281h110l29-218h-213a22 22 0 0 1 0-44h219l13-99h-232a22 22 0 0 1 0-44h238l8-62 9 62h235a22 22 0 0 1 0 44z m-377 390l83 255-78 139h254l-78-139 83-255h-264z m100-29h67l-30-218h-8z m298-526a22 22 0 0 0-21-22h-490a22 22 0 0 0 0 43h490a22 22 0 0 0 21-21z" horiz-adv-x="1000" />

<glyph glyph-name="qr-bars-code-1" unicode="&#xe83b;" d="M891-150v78h109v-78z m-157 0h79v78h-79z m157 78v78h-78v-78z m-235 78h157v78h-157z m-656 424v-156h78v78h117v78z m656-580v78h-78v78h-78v-156z m-234 156h78v78h-78z m-285-19h78v78h-78z m215 511h-352v352h352z m-79 274h-195v-195h195z m-273-570h352v-352h-352z m78-274h195v195h-195z m735 346h109v78h-109z m-598 439h-78v-78h78z m785 137v-352h-352v352z m-78-78h-195v-195h195z m-59-59h-78v-78h78z m-285-439v-111h-78v-79h156v190z m-156 0v-111h78v111z m156 0v78h-78v-78z m344 78h78v78h-78z m-109-189v-79h187v190h-78v-111z m-313 335h78v157h-78v-78h-78v-225h78z m78 352h-78v-117h78z m156-654h79v78h-79z m-312 537v-78h78v78z m391-303h-235v-78h235z m-461-78v78h-79v-78h-78v-78h227v78z" horiz-adv-x="1000" />

<glyph glyph-name="pure-php-1" unicode="&#xe83c;" d="M343 355c7 50-1 90-24 119-23 30-61 45-112 45h-159a13 13 0 0 1-13-10l-85-426a13 13 0 0 1 3-11 13 13 0 0 1 10-5h83a13 13 0 0 1 12 11l21 102h61a306 306 0 0 1 73 9c25 6 48 20 69 43a197 197 0 0 1 41 58 223 223 0 0 1 20 65z m-26 4a197 197 0 0 0-17-58 172 172 0 0 0-36-51c-18-19-37-31-57-36a282 282 0 0 0-67-8h-72a13 13 0 0 1-12-10l-21-103h-56l80 400h148c43 0 73-12 92-35s24-57 18-99z m-91 83c-22 7-50 10-83 10l-1 0c-4-1-9-1-13-1h-8a13 13 0 0 1-13-3l0-1a13 13 0 0 1-4-10l-35-174a13 13 0 0 1 11-15 56 56 0 0 1 9-1h8l6 0c36 0 68 4 93 12 31 10 51 42 60 97 9 49-2 78-30 86z m5-82c-8-44-22-70-42-77-24-7-55-11-91-10l30 152h1c5 0 10 0 15 1 30 0 55-3 74-9 14-4 19-23 13-57z m424 132c-22 17-55 27-99 27h-57l23 114h-109l-91-453h109l49 244 55 0c23 0 29-5 31-7s5-11 1-32l-41-205h109l42 209c10 49 2 84-22 103z m-3-98l-38-188h-57l35 174c5 23 3 41-6 52-9 12-26 18-51 18l-77 0-48-244h-56l80 401h56l-23-114h89c37 0 65-8 83-22 16-12 20-38 13-77z m279 48c-23 7-51 10-83 10l-1 0c-5-1-9-1-13-1h-8a13 13 0 0 1-13-3l-1-1a13 13 0 0 1-3-10l-35-174a13 13 0 0 1 10-15 55 55 0 0 1 10-1h8l5 0c37 0 69 4 94 12 30 10 50 42 60 97 8 49-2 78-30 86z m4-82c-7-44-22-70-42-77-24-7-54-11-91-10l31 152h1c5 0 9 0 14 1 30 0 56-3 75-9 14-4 18-23 12-57z m89 114c-24 30-61 45-112 45h-159a13 13 0 0 1-13-10l-85-426a13 13 0 0 1 13-16h82a13 13 0 0 1 13 11l20 102h61a306 306 0 0 1 73 9c25 6 49 20 70 43a197 197 0 0 1 41 58 222 222 0 0 1 19 65c8 50 0 90-23 119z m-2-115a197 197 0 0 0-18-58 173 173 0 0 0-35-51c-18-19-38-31-58-36a282 282 0 0 0-67-8h-71a13 13 0 0 1-13-10l-20-103h-57l80 400h149c42 0 73-12 91-35s25-57 19-99z" horiz-adv-x="1000" />

<glyph glyph-name="queryviews-carousel-1" unicode="&#xe83d;" d="M89 238h22v-16h-22z m-45-16h22v16h-22z m-28 21h-16v-21h21v16h-5z m0 172h-16v-28h16z m0 115h-16v-28h16z m0-57h-16v-29h16z m0-172h-16v-29h16z m0 57h-16v-29h16z m-16 201h16v5h5v16h-21z m111 21h-22v-16h22z m-67-16h22v16h-22z m867 16h-23v-16h23z m22-16h23v16h-23z m46 16v-16h5v-5h16v21z m5-308h16v29h-16z m0 115h16v28h-16z m0-58h16v29h-16z m0 115h16v29h-16z m0 58h16v28h-16z m0-264h-5v-16h21v21h-16z m-96-16h23v16h-23z m45 0h23v16h-23z m-482-159a29 29 0 1 0-29 28 29 29 0 0 0 29-28z m-8 0a21 21 0 1 1-21-21 21 21 0 0 1 21 21z m58 28a29 29 0 1 1 29-28 29 29 0 0 1-29 28z m108-28a29 29 0 1 0-29 28 29 29 0 0 0 29-28z m-8 0a21 21 0 1 1-21-21 21 21 0 0 1 21 21z m-533 338l31 31-15 15-46-46 46-46 15 15z m833 31l31-31-31-31 15-15 46 46-46 46z m-768-298v534h737v-534z m712 25v484h-687v-484z" horiz-adv-x="1000" />

<glyph glyph-name="queryviews-3d-1" unicode="&#xe83e;" d="M1000 535l-119-43v95l-154-54v77h-454v-77l-154 54v-95l-119 43v-370l119 43v-95l154 55v-78h454v78l154-55v95l119-43z m-987-351v332l106-38v-256z m125-45v422l135-48v-326z m568-28h-412v478h412z m156 28l-135 48v326l135 48z m125 45l-106 38v256l106 38z m-496 161h-99v21h99v99h21v-99h100v-21h-100v-99h-21z" horiz-adv-x="1000" />

<glyph glyph-name="queryviews-dualslider-1" unicode="&#xe83f;" d="M101 664l7-421h791l-6 421z m30-398l-6 374h744l6-374z m-24-230h254v183h-254z m24 159h207v-135h-207z m250 24h245v-183h-245z m264-183h254v183h-254z m24 159h207v-135h-207z m-603 291l-33-33 33-33-16-16-50 49 50 50z m934-33l-49-49-17 16 33 33-33 33 17 17z" horiz-adv-x="1000" />

<glyph glyph-name="queryviews-crossslider-1" unicode="&#xe840;" d="M302 445l-8 3-10 29-41-15-222 63-21-73 121-34-90-32 128-357 253 92-113 312z m85-313l-216-78-115 320 97 35 129-37 8 29z m613 114l-135 39 84 30-129 356-253-91 84-233-18 5-81 224-253-92 129-356 253 91-35 95 8 26 42-117 47 17 236-66z m-460 304l69-191-236 67-14-50-35 96z m116-319l-216-78-71 195 266-75 2 9z m-64 337l216 78 116-319-91-33-115 32-17-60z m116-319l-1 2 3-1z m38 235h-47v15h47v48h16v-48h47v-15h-47v-48h-16z m-567-275h110v-16h-110z" horiz-adv-x="1000" />

<glyph glyph-name="queryviews-grid-1" unicode="&#xe841;" d="M0 743h311v-245h-311z m0-270h311v-245h-311z m26-219h259v192h-259z m-26-52h311v-245h-311z m26-219h259v192h-259z m318 760h312v-245h-312z m27-218h258v192h-258z m-27-52h312v-245h-312z m27-219h258v192h-258z m-27-52h312v-245h-312z m27-219h258v192h-258z m629 760v-245h-311v245z m-26-26h-259v-192h259z m-285-244h311v-245h-311z m26-219h259v192h-259z m-26-52h311v-245h-311z m26-219h259v192h-259z" horiz-adv-x="1000" />

<glyph glyph-name="queryviews-filters-1" unicode="&#xe842;" d="M0 614h309v-298h-309z m299 104h-160v-33h160z m188 0h-160v-33h160z m27-33h160v33h-160z m348 33h-160v-33h160z m-862-437h309v-299h-309z m25-273h259v247h-259z m321 606h308v-298h-308z m25-273h258v248h-258z m-25-61h308v-298h-308z m25-272h258v247h-258z m629 606v-298h-309v298z m-25-25h-259v-248h259z m-284-308h309v-299h-309z m25-273h259v247h-259z" horiz-adv-x="1000" />

<glyph glyph-name="queryviews-next-post-1" unicode="&#xe843;" d="M52 792v-426h896v426z m873-403h-850v380h850z m-873-481h896v182h-896z m23 159h850v-136h-850z m371 565h-85v20h85z m106 0h-86v20h86z m105 0h-85v20h85z m117-103h-523v55h523z m-343-521h163v-18h-163z m-131 287a12 12 0 0 0 12 12h394a12 12 0 1 0 0-23h-394a12 12 0 0 0-12 11z m0-63a12 12 0 0 0 12 12h394a12 12 0 1 0 0-23h-394a12 12 0 0 0-12 11z m0-62a12 12 0 0 0 12 11h394a12 12 0 1 0 0-23h-394a12 12 0 0 0-12 12z" horiz-adv-x="1000" />

<glyph glyph-name="queryviews-gridtofullscreen-1" unicode="&#xe844;" d="M390 334v-139h-146v139h146m8 9h-162v-156h162v156z m171 164v-139h-145v139h145m9 8h-162v-156h162v156z m-9-181v-139h-145v139h145m9 9h-162v-156h162v156z m171 164v-139h-145v139h145m8 8h-162v-156h162v156z m-8-181v-139h-145v139h145m8 9h-162v-156h162v156z m-526-334l-3 6c-106 195-216 427-227 665l-1 11h11c278-1 589-46 978-144l11-3-4-11c-42-117-117-255-211-423l-2-4-5-2c-221-52-393-82-540-94z m-209 661c14-228 119-450 221-639 144 12 311 42 526 93 89 160 162 293 203 406-376 93-679 138-950 140z m214-155v-156h162v156z m111-83h-24v-24h-11v24h-24v11h24v24h11v-24h24z" horiz-adv-x="1000" />

<glyph glyph-name="queryviews-triggerscroll-1" unicode="&#xe845;" d="M990 457a10 10 0 1 1 0 19h-47l-2 36h49a10 10 0 0 1 0 20h-51l-12 179-910-207 67-161h-84v-75h115l12-30h-127v-75h158l72-175 735 169-17 244h42a10 10 0 1 1 0 19h-43l-3 37z m-63-37h-285a10 10 0 0 1 0-19h287l15-229-702-161-63 152h110v75h-141l-12 30h274v75h-305l-61 147 865 197 11-155h-278a10 10 0 0 1 0-20h279l3-36h-282a10 10 0 1 1 0-19h283z" horiz-adv-x="1000" />

<glyph glyph-name="queryviews-timeline-1" unicode="&#xe846;" d="M2 763l0-265h438l0 265z m22-242l1 219h393l-1-219z m976-43h-440l2-265h438z m-416-242l-1 219h394l-1-219z m-584-34l2-265h438l-2 265z m24-242l-1 219h393l1-219z m404 405v-30h-149v30z m291 250h-149v31h149z m-149-530h149v-30h-149z m-33 545a39 39 0 1 1-45-38v-209a33 33 0 0 1 0-66v-209a39 39 0 1 1 12 0v209a33 33 0 0 1 0 66v209a39 39 0 0 1 33 38z m-54 0a16 16 0 1 0 15-15 16 16 0 0 0-16 15z m31-560a16 16 0 1 0-16 15 16 16 0 0 0 16-15z" horiz-adv-x="1000" />

<glyph glyph-name="remote-rest-api-1" unicode="&#xe847;" d="M794 758c-1 0-3 0-4 0a309 309 0 0 1-178-59 300 300 0 0 1-105-137 296 296 0 0 1-361-222 221 221 0 0 1-246-220 222 222 0 0 1 5-45l2-9h522v-186l-114 115a12 12 0 0 1-16-17l142-142 142 142a12 12 0 0 1-16 17l-115-115v186h364l3 2a167 167 0 0 1 67 111 308 308 0 0 1 153 105 288 288 0 0 1 61 177c0 164-137 297-306 297z m283-285h-93c-1 74-20 143-54 196a229 229 0 0 1-41 50c106-36 183-132 188-246z m-271-127v104h155c-2-89-30-170-76-218a166 166 0 0 1-79 114z m-23 388v-261h-129a296 296 0 0 1-25 25c5 64 24 124 55 168 27 40 62 64 99 68z m0-284v-93a165 165 0 0 1-61 12c-3 0-5 0-7-1a296 296 0 0 1-43 82z m23 23v261c84-9 152-122 155-261z m-181 207a284 284 0 0 0 75 39c-48-42-83-116-93-204a294 294 0 0 1-78 40 277 277 0 0 0 96 125z m183-591h-356v157a12 12 0 0 1-23 0v-157h-503a199 199 0 0 0-3 31 198 198 0 0 0 198 198 200 200 0 0 0 32-3l11-1 2 11a273 273 0 0 0 529 28l3-9 10 1c4 0 9 1 14 1a143 143 0 0 0 86-257z m213 209a285 285 0 0 0-132-94c57 50 93 143 95 246h93a265 265 0 0 0-56-152z" horiz-adv-x="1000" />

<glyph glyph-name="remote-iframe-1" unicode="&#xe848;" d="M794 741c-105 0-200-51-257-136h-557a80 80 0 0 1-80-80v-426a80 80 0 0 1 80-80h672a80 80 0 0 1 80 80v56a316 316 0 0 1 62-6c169 0 306 133 306 296s-137 296-306 296z m283-285h-92c-2 74-21 144-54 196a231 231 0 0 1-42 50c106-36 183-132 188-246z m-294 261v-261h-51v69a80 80 0 0 1-73 80c29 66 74 107 124 112z m0-545a114 114 0 0 0-51 20v241h51z m23 0v261h156c-4-139-71-251-156-261z m0 284v261c85-9 152-122 156-261z m-106 247c-26-24-49-57-66-98h-69a279 279 0 0 0 135 98z m-720-121h672a57 57 0 0 0 57-57v-63h-786v63a57 57 0 0 0 57 57z m-57-483v340h152v-397h-95a57 57 0 0 0-57 57z m729-57h-554v397h611v-340a57 57 0 0 0-57-57z m237 146a231 231 0 0 1 42 50c33 52 52 122 54 196h92c-5-114-82-210-188-246z m-295 330a29 29 0 1 0 30-29 29 29 0 0 0-30 29z m70-431v-2a12 12 0 0 0-11-11h-2a12 12 0 1 0 13 13z m-310-2a12 12 0 0 0-12-11h-3a12 12 0 1 0 0 23h3a12 12 0 0 0 12-12z m-125 0a12 12 0 0 0-12-11h-3a12 12 0 0 0 0 23h3a12 12 0 0 0 12-12z m62 0a12 12 0 0 0-11-11h-3a12 12 0 0 0 0 23h3a12 12 0 0 0 11-12z m312 0a12 12 0 0 0-11-11h-3a12 12 0 0 0 0 23h3a12 12 0 0 0 11-12z m-187 0a12 12 0 0 0-12-11h-3a12 12 0 1 0 0 23h3a12 12 0 0 0 12-12z m125 0a12 12 0 0 0-12-11h-3a12 12 0 0 0 0 23h3a12 12 0 0 0 12-12z m-63 0a12 12 0 0 0-11-11h-3a12 12 0 0 0 0 23h3a12 12 0 0 0 11-12z m-316 9a12 12 0 0 0-7-20h-2a12 12 0 0 0-11 12v1a12 12 0 0 0 20 7z m-20 235v3a12 12 0 0 0 23 0v-3a12 12 0 0 0-23 0z m0-184v3a12 12 0 0 0 23 0v-3a12 12 0 1 0-23 0z m0 123v3a12 12 0 1 0 23 0v-3a12 12 0 0 0-23 0z m0-61v3a12 12 0 0 0 23 0v-3a12 12 0 0 0-23 0z m24 185a12 12 0 0 0-24-1v1a12 12 0 0 0 11 12h2a12 12 0 0 0 11-12z m250 0a12 12 0 0 0-12-11h-3a12 12 0 0 0 0 23h3a12 12 0 0 0 12-12z m62 0a12 12 0 0 0-11-11h-3a12 12 0 0 0 0 23h3a12 12 0 0 0 11-12z m-275 0a12 12 0 0 0 11 12h3a12 12 0 0 0 0-23h-3a12 12 0 0 0-11 11z m400 0a12 12 0 0 0-11-11h-3a12 12 0 0 0 0 23h3a12 12 0 0 0 11-12z m-312 0a12 12 0 0 0-11-11h-3a12 12 0 0 0 0 23h3a12 12 0 0 0 11-12z m63 0a12 12 0 0 0-12-11h-3a12 12 0 0 0 0 23h3a12 12 0 0 0 12-12z m161 0a12 12 0 0 0 11 12h3a12 12 0 1 0 0-23h-3a12 12 0 0 0-11 11z m149 0v-1a12 12 0 1 0-13 13h2a12 12 0 0 0 11-12z m0-60v-3a12 12 0 0 0-23 0v3a12 12 0 1 0 23 0z m0-184v-3a12 12 0 0 0-23 0v3a12 12 0 0 0 23 0z m0 123v-3a12 12 0 0 0-23 0v3a12 12 0 1 0 23 0z m0-61v-3a12 12 0 1 0-23 0v3a12 12 0 0 0 23 0z" horiz-adv-x="1000" />

<glyph glyph-name="remote-screen-1" unicode="&#xe849;" d="M793 747c-123 0-233-70-281-179h-431a80 80 0 0 1-80-80v-24h-21a80 80 0 0 1-80-80v-351a80 80 0 0 1 80-80h565a80 80 0 0 1 80 80v24h20a80 80 0 0 1 81 80v23a319 319 0 0 1 67-8c169 0 307 134 307 298s-138 297-307 297z m284-286h-93c-2 75-21 144-54 197a232 232 0 0 1-42 50c107-36 184-133 189-247z m-295 262v-262h-56v27a80 80 0 0 1-80 80h-4c26 88 80 148 140 155z m0-547c-20 2-38 10-56 23v239h56z m23 0v262h156c-4-139-71-252-156-262z m0 285v262c85-9 152-122 156-262z m-107 248c-35-32-64-80-80-141h-81a279 279 0 0 0 161 141z m-96-676a57 57 0 0 0-57-57h-565a57 57 0 0 0-57 57v351a57 57 0 0 0 57 57h565a57 57 0 0 0 57-57z m101 104a57 57 0 0 0-57-57h-21v304a80 80 0 0 1-80 80h-521v24a57 57 0 0 0 57 57h565a57 57 0 0 0 57-57z m185 54a232 232 0 0 1 42 51c33 53 52 122 54 196h93c-5-114-82-210-189-247z" horiz-adv-x="1000" />

<glyph glyph-name="remote-scraping-1" unicode="&#xe84a;" d="M800 739a304 304 0 0 1-201-76 287 287 0 0 1-96-177c-98-25-173-67-210-121h-312c-45 0-81-39-81-86s36-86 81-86h312c61-90 229-147 430-147h12v119a310 310 0 0 1 65-7c166 0 300 130 300 290s-134 291-300 291z m277-279h-90c-2 72-21 140-53 192a227 227 0 0 1-41 49c104-36 179-130 184-241z m-288 255v-256h-54v53h-11c-29 0-56-1-83-4 8 57 27 108 55 146 26 36 59 58 93 61z m0-534c-19 2-37 9-54 22v234h54z m23 0v256h152c-3-136-69-247-152-256z m0 279v256c83-10 149-120 152-256z m-198 186a278 278 0 0 0 94 55c-46-41-79-110-90-195a839 839 0 0 1-91-14 265 265 0 0 0 87 154z m-691-367c0 35 26 63 58 63h374v-127h-374c-32 0-58 29-58 64z m789-211c-179 2-328 50-390 124h56v173h-56c62 74 211 122 390 124z m181 128a227 227 0 0 1 41 49c32 52 51 120 53 192h90c-5-111-80-205-184-241z m-871 83c0-14-10-25-23-25s-23 11-23 25 10 24 23 24 23-11 23-24z" horiz-adv-x="1000" />

<glyph glyph-name="scroll-effects-1" unicode="&#xe84b;" d="M821 786h-642v-370h185l-141-44 97-268 117 36-90-96 160-131 221 237-72 59 126 39-61 168h100z m-316-845l-128 105 193 206 129-104z m133 283l-70 56-104-111-131-41-83 231 249 78v-71a11 11 0 0 1 21 0v78l152 47 83-231z m162 212h-86l-29 80-165-51v178l69-64a11 11 0 0 1 15 0 9 9 0 0 1 0 14l-95 88-94-88a9 9 0 0 1 0-14 11 11 0 0 1 15 0l69 64v-185l-74-23v1h-225v331h600z" horiz-adv-x="1000" />

<glyph glyph-name="scrol-indicator-1" unicode="&#xe84c;" d="M449 831h-114v-12h-3v-615l-136 78v-188l136 79v-310h120v956h-3z m-228-693v101l87-51z m334 668h237a13 13 0 0 1 0 25h-237a13 13 0 0 1 0-25z m237-452h-237a13 13 0 0 1 0-26h237a13 13 0 0 1 0 26z m-143 313h-94a8 8 0 1 1 0-15h94a8 8 0 1 1 0 15z m0-159h-94a8 8 0 1 1 0-16h94a8 8 0 1 1 0 16z m143-617h-237a13 13 0 0 1 0-25h237a13 13 0 0 1 0 25z m-143 155h-94a8 8 0 1 1 0-16h94a8 8 0 1 1 0 16z m0 144h-94a8 8 0 1 1 0-16h94a8 8 0 1 1 0 16z" horiz-adv-x="1000" />

<glyph glyph-name="scroll-snap-1" unicode="&#xe84d;" d="M500 594a128 128 0 1 1-128 128 128 128 0 0 1 128-128z m0 229a101 101 0 1 0-100-101 101 101 0 0 0 100 100z m128-473a128 128 0 1 0-128 128 128 128 0 0 0 128-128z m-128-244a128 128 0 1 1 128-128 128 128 0 0 1-128 128z m0-229a101 101 0 1 0 101 101 101 101 0 0 0-101-100z" horiz-adv-x="1000" />

<glyph glyph-name="scroll-horizzontal-1" unicode="&#xe84e;" d="M329 363l-33 0v206h-346v-438h346v212l33-1v-211h346v438h-346z m-56-212h-300v398h300v-185l-150 2h0c-6 0-11-5-12-10s6-11 12-11l150-2z m379 398v-398h-300v191l160-2-74-62a9 9 0 0 1 0-15 13 13 0 0 1 17 0l102 87-99 90a13 13 0 0 1-16 0 9 9 0 0 1-1-14l72-65-161 2v186z m52 20v-438h346v438z m323-418h-300v398h300z" horiz-adv-x="1000" />

<glyph glyph-name="svg-distortion-1" unicode="&#xe84f;" d="M997 711c-76 91-160 127-256 109-84-16-167-70-248-123-162-105-315-204-469-19a13 13 0 0 1-24-8v-673a13 13 0 0 1 3-8c63-76 132-114 209-114a256 256 0 0 1 47 5c84 16 167 70 248 123 162 105 315 204 470 19a13 13 0 0 1 23 8v673a13 13 0 0 1-3 8z m-24-13v-177c-64 66-134 94-212 85v190c71 9 142-15 212-98z m-239-552c-74-15-148-61-221-108v187c76 49 149 96 221 112z m-707 272c56-58 117-87 185-87a250 250 0 0 1 27 2v-211c-71-8-142 15-212 99z m239 136c74 16 148 61 221 108v-185c-75-49-149-96-221-113z m247-92c76 49 149 96 221 113v-210c-74-16-148-62-221-108z m221 140c-74-16-148-61-221-108v185c76 49 149 96 221 112z m-468-265c74 16 148 61 221 108v-206c-75-48-149-95-221-112z m0-237c74 16 148 61 221 108v-187c-75-49-149-96-221-112z m495 480c71 8 142-16 212-99v-198c-64 66-134 95-212 86z m-522-30v-190c-71-9-142 15-212 98v177c64-66 134-94 212-86z m-212-548v179c56-58 117-87 185-87a245 245 0 0 1 27 2v-192c-71-9-142 15-212 98z m734 149v191c71 9 142-15 212-98v-179c-64 66-134 94-212 86z" horiz-adv-x="1000" />

<glyph glyph-name="svg-blob-1" unicode="&#xe850;" d="M458-70a316 316 0 0 0-42 6l-3 1 5 26 4 0a288 288 0 0 1 38-6l4 0-2-27z m35 27l4 1a82 82 0 0 1 32 13l3 2 15-23-3-2a108 108 0 0 0-42-17l-4-1z m259-19c-62 0-97 50-128 95-5 7-11 15-16 23-2 2-3 4-5 6l0-3-27 4 0 3c1 7 2 14 3 23-75 72-176 73-284 74-12 0-26 1-40 1-35 1-67 6-93 15l-10-2-1 3c0 1 0 2 0 2-25 10-46 24-62 41-50 54-50 133-44 176 10 87 50 171 114 238s145 113 230 129a253 253 0 0 0 45 4c64 0 121-21 153-57 30-32 39-76 25-124-1-3-1-5-2-8-3-9-6-18-9-26-7-21-14-41-16-62-6-58 30-115 85-135 28-11 60-13 90-14 28-2 57-3 84-12a201 201 0 0 1 21 18l3 3 19-19-3-3c-4-4-8-8-13-12 24-15 42-38 53-70 21-61 11-140-26-211-25-46-62-79-104-93a139 139 0 0 0-42-7z m-144 161a282 282 0 0 0 22-27c6-8 11-16 17-24 31-44 57-83 104-83a113 113 0 0 1 35 6c35 11 67 40 88 80 34 64 43 135 24 189-24 71-78 73-139 77-33 1-67 3-99 15-66 25-109 94-102 164 2 24 10 46 17 68 3 8 6 17 9 25 0 2 1 5 2 7 5 21 7 40 3 57-4-4-8-8-12-13l-2-2-20 18 2 3c7 7 14 14 21 21a96 96 0 0 1-11 15c-27 30-77 48-131 48a232 232 0 0 1-42-4c-80-14-156-57-216-120s-97-142-106-223c-5-38-6-109 37-154a135 135 0 0 1 39-28c0 1 0 2 0 3q0 3 0 7l0 3 27-1 0-3c0-2 0-4 0-6 0-5 0-9 1-14 23-7 50-11 80-12 13 0 27 0 39-1 109-1 221-2 304-82l10-1z m-232-152a364 364 0 0 0-39 16l-3 2 11 24 4-1a342 342 0 0 1 36-15l3-1-9-26z m175 46l2 3a98 98 0 0 1 10 18c2 5 4 10 5 15l1 3 26-8-1-3c-2-6-4-12-6-17a124 124 0 0 0-12-24l-2-3z m-251-10a380 380 0 0 0-34 24l-3 3 17 21 3-2a354 354 0 0 1 32-23l3-2-15-23z m-65 52a349 349 0 0 0-28 32l-3 2 22 17 2-3a321 321 0 0 1 26-29l2-2-19-19z m-52 66a291 291 0 0 0-19 38l-2 4 25 10 2-3a266 266 0 0 1 17-35l2-3-24-14z m402 42l1 4a265 265 0 0 0 9 41l1 4 26-9-1-3a237 237 0 0 1-8-37l-1-4z m27 82l2 3a125 125 0 0 0 32 32l3 2 15-23-3-2a96 96 0 0 1-25-25l-2-3z m70 53l3 1 4 1c13 4 26 7 37 10l3 0 6-26-3-1c-10-2-23-5-35-9l-3-1-3-1z m-528-15l1 4a146 146 0 0 0 19 40l2 3 22-15-2-3a119 119 0 0 1-15-33l-1-3z m608 34l3 1a274 274 0 0 1 36 11l5 1 10-25-5-2a299 299 0 0 0-39-11l-4-1z m-561 40l3 3a245 245 0 0 0 36 23l3 2 13-24-3-2a219 219 0 0 1-32-21l-3-2z m72 43l3 2c4 2 8 3 12 5 7 4 15 9 23 13l3 2 14-23-3-2c-8-5-17-10-25-14-4-2-8-4-12-6l-3-2z m615-3l2 3a224 224 0 0 1 19 32l2 4 24-12-1-3a251 251 0 0 0-22-37l-2-3z m-547 43l3 2c11 7 21 15 31 23l3 3 18-21-3-3c-11-8-22-17-33-25l-3-2z m581 24l1 4a214 214 0 0 1 7 37l0 4 27-3 0-4a242 242 0 0 0-8-41l-1-4z m-520 25l3 2c9 9 19 19 27 29l3 2 20-18-2-3c-10-10-19-20-29-29l-3-3z m53 58l3 3c9 11 17 23 24 32l2 3 22-16-2-3c-7-9-16-21-25-33l-2-3z m476-4a250 250 0 0 1-5 38l-1 4 27 5 0-3a275 275 0 0 0 6-42l0-4-27-1z m-428 68l3 3c9 14 17 24 24 33l3 3 21-17-2-3c-8-9-15-19-24-32l-3-3z m412 7a223 223 0 0 1-17 34l-2 3 24 14 2-3a249 249 0 0 0 18-38l2-4-26-10z m-39 65a184 184 0 0 1-28 25l-3 2 17 22 3-2a211 211 0 0 0 31-29l3-3-21-18z m-258 48l3 2a237 237 0 0 0 38 20l4 1 10-25-4-2a210 210 0 0 1-33-17l-3-2z m198-4a167 167 0 0 1-35 11l-4 1 5 27 4-1a196 196 0 0 0 41-13l4-2-12-24z m-119 37l3 1c4 0 7 1 11 1a230 230 0 0 0 32 3l4 0 0-27-4 0a203 203 0 0 1-28-3c-3 0-6-1-9-1l-4-1z" horiz-adv-x="1000" />

<glyph glyph-name="svg-morphing-1" unicode="&#xe851;" d="M500 96c-2 0-3 0-5 0a250 250 0 0 0-140 43l-77-78-284 284 284 283 74-74a251 251 0 0 0 287-1l50 102 99-200 221-32-160-156 38-220-198 104-197-104z m60 181l-31-179 160 84 161-84-31 179 130 126-179 26-81 163-27-56 3-3-10-11-46-93-179-26z m-282-177l55 55a251 251 0 0 0-2 383l-53 52-246-245z m217 472a225 225 0 0 1 0-449c3 0 7 0 10 0l25 144-160 156 221 32 36 74a226 226 0 0 1-132 43z" horiz-adv-x="1000" />

<glyph glyph-name="svg-fe-1" unicode="&#xe852;" d="M995 436c2 6 3 13 3 19 0 2 1 4 1 6 0 2 0 3 0 4 0 3 1 7 1 10l0 3c0 3 0 7 0 10v0c0 163-130 295-291 299-3 0-6 0-8 0s-5 0-8 0l-2 0c-2 0-3 0-5 0l-2 0c-2 0-4 0-6 0l-1 0c-2 0-4-1-7-1l0 0a297 297 0 0 1-170-76 297 297 0 0 1-170 76l0 0c-3 0-5 1-7 1l-1 0c-2 0-4 0-6 0l-2 0c-2 0-4 0-5 0l-2 0c-3 0-5 0-8 0-165 0-299-134-299-299 0-3 0-7 0-10l0-3c1-3 1-7 1-10 0-1 0-2 0-3 0-2 1-5 1-7 0-1 0-3 0-5 1 0 1-1 1-2q1-6 2-12a6 6 0 0 0 0-1 297 297 0 0 1 98-172l1-1c2-2 4-4 6-5 2-2 3-3 5-4q2-2 4-3c1-1 3-3 5-4l3-2c2-2 5-3 7-5l3-2c2-1 5-3 8-5 1 0 1-1 2-1 2-1 5-3 7-4 1 0 2-1 2-1 3-2 6-3 8-4l4-2c2-1 3-2 5-3 3-1 5-2 8-3l3-2c5-2 11-4 17-6 3-162 136-293 299-293s296 131 299 293c6 2 12 4 17 6l3 2c3 1 5 2 8 3 2 1 3 2 5 3l4 2c2 1 5 2 7 4l3 1c2 1 5 3 7 4l2 1c3 2 6 4 8 5l3 2c2 2 4 3 7 5l3 2c2 1 4 3 5 4 2 1 3 2 4 3 2 1 3 2 5 3 2 2 4 4 6 6l1 1a299 299 0 0 1 44 47 296 296 0 0 1 54 125z m-232 321c122-28 213-138 213-269v0c0-3 0-6 0-9 0-1 0-2 0-3q0-4 0-8c0-1 0-2-1-3 0-2 0-4 0-6 0-2 0-4-1-5 0-1 0-2 0-3a276 276 0 0 0-175-220c0 0 0 0 0 0q-1 11-2 21c0 1-1 1-1 2q0 4-1 8c0 1 0 2 0 3-1 2-1 5-2 8 0 1-1 3-1 5l-1 2a298 298 0 0 1-193 214c0 0 0 1 0 1 0 4 0 8 0 12l0 3c-1 3-1 7-1 10 0 2-1 3-1 5q0 4-1 8c0 2-1 5-1 7 0 1 0 2-1 3a296 296 0 0 1-76 150 276 276 0 0 0 114 62l2 0c3 1 6 2 9 3 2 0 4 0 5 1l5 1c3 0 6 0 9 1l4 0c3 1 6 1 9 2l3 0c4 0 7 0 11 1 0 0 1 0 1 0 4 0 8 0 12 0a276 276 0 0 0 62-7z m-537-520c0 3 0 7 1 10a2 2 0 0 0 0 1c0 3 1 6 1 9 0 1 0 1 1 2 0 3 1 6 1 8 0 2 1 4 1 5 0 1 1 2 1 3a277 277 0 0 0 170 194 298 298 0 0 1 81-186 275 275 0 0 0-258-60c0 4 0 9 1 13 0 0 0 1 0 1z m543 35q0-2 1-5c0-2 1-5 1-8 1 0 1-1 1-2 0-3 1-6 1-9a2 2 0 0 0 0-1c1-3 1-7 1-10 0 0 0-1 0-1 1-4 1-9 1-13a275 275 0 0 0-258 60 298 298 0 0 1 81 186 277 277 0 0 0 170-194c0-1 1-2 1-3z m-269 239a298 298 0 0 1-74-9 275 275 0 0 0 74 175 275 275 0 0 0 74-175 298 298 0 0 1-74 9z m-201 253c4 0 8 0 12 0 0 0 1 0 2 0 3-1 7-1 10-1l3 0c3-1 6-1 10-1l3-1c3 0 6-1 9-1q2-1 5-1c1-1 3-1 5-1q4-1 9-2l2-1a276 276 0 0 0 114-62 296 296 0 0 1-76-150c0-1-1-2-1-3 0-2-1-5-1-7s-1-6-1-8c0-2 0-3-1-5 0-3 0-7 0-10l-1-3c0-4 0-8 0-12 0 0 0 0 0-1a298 298 0 0 1-193-214l-1-2c0-2 0-3-1-5 0-3-1-5-1-8 0-1-1-2-1-3q0-4-1-8c0 0 0-1 0-2q-2-10-2-21s0 0 0 0a276 276 0 0 0-176 220c0 1 0 2 0 3 0 2 0 3-1 5 0 2 0 4 0 6 0 1 0 2 0 3-1 3-1 5-1 8 0 1 0 2 0 3 0 3 0 6 0 9 0 152 123 276 275 276z" horiz-adv-x="1000" />

<glyph glyph-name="svg-textpath-1" unicode="&#xe853;" d="M959 227a482 482 0 0 1-146 298 458 458 0 0 1-170 103h179a49 49 0 0 1 47-38c26 0 48 23 48 50s-22 49-48 49a49 49 0 0 1-47-37h-278v28h-77v-28h-290a49 49 0 0 1-47 37c-26 0-48-22-48-49s22-50 48-50a49 49 0 0 1 47 38h179a458 458 0 0 1-170-103 482 482 0 0 1-146-298h-40v-103h101v103h-37a458 458 0 0 0 139 281c73 70 166 111 264 119v-27h77v26a430 430 0 0 0 252-118 458 458 0 0 0 139-281h-36v-103h101v103z m-90 439c13 0 24-12 24-26s-11-26-24-26-25 12-25 26 11 26 25 26z m-739-52c-13 0-24 12-24 26s11 26 24 26 25-12 25-26-11-26-25-26z m-53-467h-53v57h53z m899 0h-53v57h53z m-621 235h312v-82h-107v-289h-99v289h-106z" horiz-adv-x="1000" />

<glyph glyph-name="svg-strokeanimated-1" unicode="&#xe854;" d="M664-41l4 0a117 117 0 0 1 35 10c3 2 6 3 9 5l3 2 14-27-4-2c-3-1-6-3-10-5a147 147 0 0 0-44-12l-4-1z m-52-20c-19 10-32 27-38 50l-1 3 29 8 1-4c4-14 11-24 23-31l4-1-14-27z m138 59l4 2c7 6 15 12 23 17l0 0c6 5 12 9 18 14l4 2 17-24-3-2c-6-5-12-9-18-14l0 0c-8-6-16-11-24-17l-3-2z m235 32a111 111 0 0 1-41 19l-4 1 6 29 4-1a142 142 0 0 0 52-24l4-2-18-24z m-148 28l3 2a180 180 0 0 0 53 19l4 1 5-29-4-1a151 151 0 0 1-44-16l-3-2z m-596-24c-3 0-5 0-7 0-32 2-61 24-75 54-11 27-12 60 0 90 22 60 84 110 128 146 48 38 99 71 148 103l15 9c25 16 57 39 78 69 30 41 32 92 5 140-23 43-63 73-113 87a253 253 0 0 1-66 8 303 303 0 0 1-152-41c-60-35-107-88-138-154-29-62-42-133-37-205l0-4-30-2 0 4c-5 77 9 153 40 220 33 71 85 129 149 167a333 333 0 0 0 168 45 282 282 0 0 0 74-9c58-16 104-51 132-102 31-57 29-121-7-171-25-35-59-59-87-77l-14-9c-49-32-100-65-146-101-42-34-100-81-119-133-9-23-9-48 0-67 9-21 28-36 49-37 1 0 3 0 5 0 46 0 87 41 118 77 16 19 31 40 46 60 22 30 44 61 71 88 13 13 26 25 38 36l3 3 20-22-3-3c-12-10-24-22-37-35-25-26-47-56-68-85-15-20-31-41-48-61-35-41-82-88-140-88z m334 10l1 4a149 149 0 0 0 28 50l3 3 23-19-3-3a119 119 0 0 1-22-40l-1-4z m66 89l4 2c14 11 29 20 44 29l4 2 15-26-3-2c-15-8-29-17-43-27l-3-2z m88 55l3 3c2 1 4 2 5 3a211 211 0 0 1 33 28l2 3 22-20-3-3a241 241 0 0 0-36-32c-2-1-4-3-6-4l-3-2z m65 68l1 4a89 89 0 0 1 6 21 76 76 0 0 1 1 11 82 82 0 0 1-1 11l-1 4 30 4 0-4a115 115 0 0 0 1-15 107 107 0 0 0-1-15 120 120 0 0 0-7-28l-2-4z m-242 101l3 2a371 371 0 0 0 46 29l3 2 14-26-3-2a341 341 0 0 1-42-27l-3-2z m232-13a80 80 0 0 1-18 18 139 139 0 0 1-16 10l-4 1 13 27 4-2a167 167 0 0 0 20-12 110 110 0 0 0 25-24l3-4-24-17z m-136 63l4 1a172 172 0 0 0 44 6c4 0 8 0 12 0l4 0-2-30-4 0c-3 1-7 1-10 1a142 142 0 0 1-36-5l-4-1z" horiz-adv-x="1000" />

<glyph glyph-name="text-editor-tokens-1" unicode="&#xe855;" d="M281-53h-281v806h281v-108h-173v-590h173z m-254 27h227v54h-173v644h173v54h-227z m973-27h-281v108h173v590h-173v108h281z m-254 27h227v752h-227v-54h173v-644h-173z m4 550a14 14 0 0 1-13 14h-485a14 14 0 1 1 0-28h485a14 14 0 0 1 13 14z m0-111a14 14 0 0 1-13 13h-485a14 14 0 1 1 0-27h485a14 14 0 0 1 13 14z m0-112a14 14 0 0 1-13 14h-485a14 14 0 1 1 0-27h485a14 14 0 0 1 13 13z m-169-101a14 14 0 0 1-14 13h-315a14 14 0 1 1 0-27h315a14 14 0 0 1 14 14z" horiz-adv-x="1000" />

<glyph glyph-name="termstaxonomy-list-1" unicode="&#xe856;" d="M766 18a22 22 0 0 0-22-22h-499a22 22 0 1 0 0 44h499a22 22 0 0 0 22-22z m-22-124h-499a22 22 0 0 1 0-44h499a22 22 0 1 1 0 44z m96 801v-395h-680v530h321l70-135z m-29-30h-278l-70 135h-274v-470h622z m-67-479h-499a22 22 0 0 1 0-44h499a22 22 0 1 1 0 44z" horiz-adv-x="1000" />

<glyph glyph-name="webgl-distortioneffects-1" unicode="&#xe857;" d="M1000 708h-1000v-648h651l15-37 14 37h92l68-68 50 51-17 17h127z m-311-626l18 43 43-43z m151-59l-141 141-33-82h-1l-91 224 225-91-79-32 139-140z m138 59h-127l-93 93 99 39-322 131 107-263h-620v604h405c-10-9-32-16-51-23-36-12-73-24-73-54s37-42 73-54c26-9 58-19 58-33s-32-25-58-34c-36-12-73-24-73-54s37-42 73-54c26-9 58-20 58-34s-32-25-58-33c-36-12-73-25-73-55s37-42 73-54c26-8 58-19 58-33s-32-25-58-34c-36-12-73-24-73-54h22c0 14 32 25 58 34 36 12 73 24 73 54s-37 42-73 54c-26 9-58 19-58 33s32 25 58 34c36 12 73 24 73 54s-37 42-73 54c-26 9-58 20-58 34s32 25 58 33c36 12 73 25 73 55s-37 42-73 54c-26 8-58 19-58 33s32 25 58 34c31 10 63 21 71 43h524z" horiz-adv-x="1000" />

<glyph glyph-name="video-widget-customcontrols-1" unicode="&#xe858;" d="M480 723c-206 0-373-167-373-373s167-374 373-374 374 168 374 374-168 373-374 373z m0-720c-191 0-346 156-346 347s155 346 346 346 347-155 347-346-156-347-347-347z m-94 497l260-150-260-150z m534 209v83h-84v-83h-80v-82h80v-83h84v83h80v82z m53-55h-80v-83h-30v83h-80v28h80v83h30v-83h80z" horiz-adv-x="1000" />

<glyph glyph-name="webgl-panorama-1" unicode="&#xe859;" d="M1000 695l-18-16c0 0-43-38-123-75-75-34-197-74-359-74-163 0-285 42-359 77-80 38-122 76-123 77l-18 17v-702l17 13c2 1 209 148 483 149h4c272 0 477-148 479-149l17-13v696z m-748-286a2324 2324 0 0 1 237-13v-99a2359 2359 0 0 1-237-13z m259-112v99a2318 2318 0 0 1 237 13v-125a2353 2353 0 0 1-237 13z m237 133a2300 2300 0 0 0-237-13v92a922 922 0 0 1 237 33z m-259-13a2300 2300 0 0 0-237 13v112a896 896 0 0 1 237-33z m-467 31a1792 1792 0 0 1 208-37v-130a1820 1820 0 0 1-208-36z m230-186a2334 2334 0 0 0 237 13v-92c-88-2-169-18-237-39z m259 13a2329 2329 0 0 0 237-13v-116c-67 20-148 36-237 37z m259 6v130a1791 1791 0 0 1 209 37v-203a1823 1823 0 0 1-209 36z m99 304c53 25 90 49 110 64v-179a1766 1766 0 0 0-210-37v115a795 795 0 0 1 99 37z m-738 3a773 773 0 0 1 99-39v-116a1763 1763 0 0 0-208 37v184c19-16 56-41 109-66z m-109-548v183a1785 1785 0 0 0 208 37v-122c-32-11-60-22-84-32a896 896 0 0 1-124-66z m832 67c-24 10-53 21-84 32v121a1784 1784 0 0 0 209-37v-182a879 879 0 0 1-125 66z" horiz-adv-x="1000" />

<glyph glyph-name="webgl-mash-1" unicode="&#xe85a;" d="M943 631c0 0 0 0 0 0a14 14 0 0 1-8 12l-429 206a14 14 0 0 1-12 0l-121-58-4 2-2-5-302-145c0 0 0 0 0 0l-1 0 0 0-1-1-1-1 0 0-1-1c0 0 0 0 0-1s-1 0-1 0 0-1-1-1 0-1 0-1 0 0 0-1-1 0-1-1 0 0 0 0a9 9 0 0 1 0-2l-1 0c0-1 0-1 0-1s0-1 0-1v-511a14 14 0 0 1 7-12l424-256 0 0 0 0 1-1 1 0a8 8 0 0 1 1 0 6 6 0 0 1 0-1l1 0 1 0a15 15 0 0 1 2 0 14 14 0 0 1 2 0l0 0c1 0 1 0 2 0l0 1c1 0 1 0 1 0l1 0c0 1 1 1 1 1l0 0 0 0 434 256a14 14 0 0 1 7 12v510c0 0 0 0 0 1z m-154-576h2l-127-75v127l125 69z m-125 84v142l124 68 1-141z m-162 554l119-61-120-62-119 61z m-151-46l-103 53 125 59 98-50z m182 62l96 50 123-60-100-51z m381-103v-155l-98-54-1 155 75 41z m-696-74l119-67v-153l-119 69z m-28-135l-104 60v149l104-58z m308 14l-118 65 121 62 119-60z m-132 38l115-64v-155l-115 66z m115-252v-142l-115 69v139z m28 185l127 70v-155l-127-70z m155 86l123 68 1-155-124-68z m-14 26l-118 60 120 62 115-58z m-180 60l-120-62-114 64 115 59z m-384-130l104-60v-136l-104 62z m132-76l119-68v-140l-119 71z m119-240v-132l-119 72v130z m29-146v129l115-68v-134l-120 73z m143 233l127 70v-142l-127-70z m307 170l98 54v-140l-97-55z m60 253l-79-44-114 58 101 52 114-54z m-376 202l97-46-95-49-97 50z m-284-136l104-53-114-59-104 58z m-130-427l104-62v-130l-104 63z m423-237l127 71v-127l-127-75z m309 51l-1 121 97 54v-118z" horiz-adv-x="1000" />

<glyph glyph-name="widget-template-1" unicode="&#xe85b;" d="M912 614h-383c-34 0-72 27-84 59l-12 35c-16 44-65 78-112 78h-233a88 88 0 0 1-88-88v-689a88 88 0 0 1 88-89l824-6h1a87 87 0 0 1 87 87v526a88 88 0 0 1-88 87z m59-613a58 58 0 0 0-58-58l-825 6h0a59 59 0 0 0-59 60v689a59 59 0 0 0 59 59h233c34 0 73-27 84-59l13-35c15-44 64-78 111-78h383a59 59 0 0 0 59-58z m-260 109a15 15 0 0 0-15-15h-410a15 15 0 0 0 0 29h410a15 15 0 0 0 15-14z m0-66a15 15 0 0 0-15-15h-410a15 15 0 1 0 0 30h410a15 15 0 0 0 15-15z m-533 124h648v342h-648z m619 39l-263 132 263 133z m-47-10h-496l248 126z m-248 159l-248 125h496z m-32-17l-263-132v265z" horiz-adv-x="1000" />

<glyph glyph-name="webgl-post-processing-effects-1" unicode="&#xe85c;" d="M0 678v-656h1000v656z m978-634h-956v612h956z m-770 533a43 43 0 1 0 37-49 43 43 0 0 0-37 49z m0-111a43 43 0 1 0 37-49 43 43 0 0 0-37 49z m0-111a43 43 0 1 0 37-49 43 43 0 0 0-37 49z m0-111a43 43 0 1 0 37-49 43 43 0 0 0-37 49z m0-111a43 43 0 1 0 37-49 43 43 0 0 0-37 49z m-125 444a43 43 0 1 0 37-49 43 43 0 0 0-37 49z m0-111a43 43 0 1 0 37-49 43 43 0 0 0-37 49z m0-111a43 43 0 1 0 37-49 43 43 0 0 0-37 49z m0-111a43 43 0 1 0 37-49 43 43 0 0 0-37 49z m0-111a43 43 0 1 0 37-49 43 43 0 0 0-37 49z m243 444a43 43 0 1 0 36-49 43 43 0 0 0-36 49z m0-111a43 43 0 1 0 36-49 43 43 0 0 0-36 49z m0-111a43 43 0 1 0 36-49 43 43 0 0 0-36 49z m0-111a43 43 0 1 0 36-49 43 43 0 0 0-36 49z m0-111a43 43 0 1 0 36-49 43 43 0 0 0-36 49z m128 444a43 43 0 1 0 37-49 43 43 0 0 0-37 49z m0-111a43 43 0 1 0 37-49 43 43 0 0 0-37 49z m0-111a43 43 0 1 0 37-49 43 43 0 0 0-37 49z m0-111a43 43 0 1 0 37-49 43 43 0 0 0-37 49z m0-111a43 43 0 1 0 37-49 43 43 0 0 0-37 49z m115 444a43 43 0 1 0 36-49 43 43 0 0 0-36 49z m0-111a43 43 0 1 0 36-49 43 43 0 0 0-36 49z m0-111a43 43 0 1 0 36-49 43 43 0 0 0-36 49z m0-111a43 43 0 1 0 36-49 43 43 0 0 0-36 49z m0-111a43 43 0 1 0 36-49 43 43 0 0 0-36 49z m128 444a43 43 0 1 0 37-49 43 43 0 0 0-37 49z m0-111a43 43 0 1 0 37-49 43 43 0 0 0-37 49z m0-111a43 43 0 1 0 37-49 43 43 0 0 0-37 49z m0-111a43 43 0 1 0 37-49 43 43 0 0 0-37 49z m0-111a43 43 0 1 0 37-49 43 43 0 0 0-37 49z m120 444a43 43 0 1 0 37-49 43 43 0 0 0-37 49z m0-111a43 43 0 1 0 37-49 43 43 0 0 0-37 49z m0-111a43 43 0 1 0 37-49 43 43 0 0 0-37 49z m0-111a43 43 0 1 0 37-49 43 43 0 0 0-37 49z m0-111a43 43 0 1 0 37-49 43 43 0 0 0-37 49z" horiz-adv-x="1000" />

<glyph glyph-name="enhanced-dynamic-tags-1" unicode="&#xe85d;" d="M786 634h117v-63h-117v-117h-63v117h-117v63h117v117h63z m41-555a59 59 0 0 0 5-22v-65c0-41-45-79-127-105-77-26-180-40-289-40s-212 14-290 40c-81 27-126 64-126 105v65a60 60 0 0 0 4 22 12 12 0 0 0 19 5c55-49 217-82 393-82s338 33 393 82a12 12 0 0 0 18-5z m-19-25c-69-46-222-76-392-76s-323 30-392 76v-62c0-30 40-60 110-83 75-25 175-39 282-39s207 14 282 39c70 23 110 53 110 83z m19 219a59 59 0 0 0 5-22v-65c0-41-45-78-127-105-77-26-180-40-289-40s-212 14-290 40c-81 27-126 64-126 105v65a60 60 0 0 0 4 22 12 12 0 0 0 19 5c55-48 217-82 393-82s338 34 393 82a12 12 0 0 0 18-5z m-19-25c-69-46-222-76-392-76s-323 30-392 76v-62c0-29 40-60 110-83 75-24 175-38 282-38s207 14 282 38c70 23 110 54 110 83z m192 354a248 248 0 0 0-171-235c-7-27-38-62-131-92-76-24-177-37-282-37-109 0-212 14-290 40-81 26-126 64-126 105v65a60 60 0 0 0 4 22 12 12 0 0 0 19 4c55-48 217-81 393-81a1305 1305 0 0 1 186 12 252 252 0 0 0-45 45 1309 1309 0 0 0-141-8c-109 0-212 13-289 36-83 24-127 57-127 95v58c0 2 0 3 0 5a41 41 0 0 0 0 4c0 75 193 118 385 122h1l8 0 2 0 7 0h3c3 0 7 0 10 0h0a1407 1407 0 0 0 142-7 248 248 0 0 0 442-153z m-976 34c5-26 59-49 109-63 76-21 176-32 283-32 32 0 64 1 95 3q-2 10-4 20c0 0 0 1 0 1 0 2 0 3 0 5-1 1-1 1-1 2l0 2 0 4c0 0 0 1 0 1 0 1-1 2-1 2s0 2 0 3 0 2 0 2l0 2c0 2 0 3 0 4 0 1 0 1 0 2 0 1 0 1 0 1 0 3 0 5 0 7v0c0 3 0 5 0 8 0 1 0 2 0 3 0 1 0 3 0 5 0 1 0 2 0 3 0 2 1 3 1 5 0 2 0 4 0 6 0 1 1 2 1 2q0 3 0 6v0a244 244 0 0 0 35 93c-41 4-83 6-126 6h0c-107 0-207-12-282-35-65-19-106-44-110-68z m518-164a246 246 0 0 0-24 49c-33-3-68-4-102-4-162 0-332 28-393 80v-24c0-51 162-107 393-107 43 0 85 2 126 6z m258-113q-12-2-24-3l0 0-6-1-1 0-5 0-2 0c-1 0-3 0-4 0-2 0-4 0-6 0q-3 0-7 0l-2 0c-2 0-4 0-6 0l-1 0c-3 0-5 0-7 1h-1a245 245 0 0 0-68 16l-1 1c-2 0-4 1-6 2l-2 1-5 2-3 2-4 2c-1 0-3 1-4 2l-1 1-3 1c-65-11-139-17-215-17-170 0-323 30-392 76v-62c0-30 40-60 110-83 75-25 175-39 282-39 103 0 201 13 275 37 55 17 93 38 109 61z m177 243a224 224 0 0 1-445 41c0-1-1-1-1-2 0-1 0-3 0-5s-1-4-1-5c0-2-1-3-1-4 0-2 0-3 0-5 0-1 0-2 0-2 0-1 0-1 0-1-1-2-1-4-1-7 0 0 0-1 0-2v0c0-3 0-5 0-8s0-5 0-8l0-1c0-1 0-2 0-4s1-2 1-4c0-2 0-4 0-6l0-2c0 0 0 0 1-1 0-2 0-4 0-6l1-1c0-3 0-5 1-8 0 0 0-1 0-1 0-2 1-4 1-6l1-2c0-2 1-4 1-7 0 0 1-1 1-2 0-2 1-3 1-4a225 225 0 0 1 104-131l0-1c3-1 5-2 7-4l3-1 3-1c1-1 2-1 4-2l1-1c5-2 9-4 13-5l1 0a225 225 0 0 1 64-15l1 0c2 0 4 0 6 0l1 0c3 0 5 0 7 0s5 0 8 0l1 0 7 1 1 0c2 0 5 0 8 0h0a224 224 0 0 1 39 8h0a225 225 0 0 1 161 215z" horiz-adv-x="1000" />

<glyph glyph-name="shortcode-template-1" unicode="&#xe85e;" d="M912 614h-383c-34 0-72 27-84 59l-12 35c-16 44-65 78-112 78h-233a88 88 0 0 1-88-88v-689a88 88 0 0 1 88-89l824-6h1a87 87 0 0 1 87 87v526a88 88 0 0 1-88 87z m59-613a57 57 0 0 0-17-41 57 57 0 0 0-41-17l-825 6h0a59 59 0 0 0-59 60v689a59 59 0 0 0 59 59h233c34 0 73-27 84-59l13-35c15-43 64-78 111-78h383a59 59 0 0 0 59-58z m-750 489h148v-47h-101v-358h101v-47h-148z m418 0h147v-452h-147v47h100v358h-100z" horiz-adv-x="1000" />

<glyph glyph-name="rowcolumn-link-1" unicode="&#xe85f;" d="M718 671l-50 137h-336l-50-137h-282v-677h432a13 13 0 1 1 0 26h-406v625h948v-625h-158a13 13 0 0 1 0-26h184v677z m-408 0l40 112h300l41-112z m114 40h152v-16h-152z m0 41h152v-16h-152z m33-316v144h-352v-495h234a13 13 0 1 0 0-25h-260v545h404v-169a13 13 0 1 0-26 0z m464-376h-129a13 13 0 1 0 0 25h103v495h-352v-138a13 13 0 0 0-26 0v163h404z m-650 334a62 62 0 0 1 0-87l100-100a24 24 0 0 0-34-34l-100 100a110 110 0 0 0 156 155l157-157a110 110 0 0 0 0-155l-35 34a62 62 0 0 1 0 87l-157 157a62 62 0 0 1-87 0z m470-315a110 110 0 0 0-155-155l-157 157a110 110 0 0 0 0 155 24 24 0 1 0 34-34 62 62 0 0 1 0-87l157-157a62 62 0 0 1 87 87l-99 100a24 24 0 0 0 34 34z" horiz-adv-x="1000" />

<glyph glyph-name="logo-e-addons" unicode="&#xe860;" d="M213 341l-213 2c0 2 0 5 0 7 0 276 224 500 500 500s500-224 500-500a498 498 0 0 0-49-215h-510c-61 0-103 20-127 63-12 21-17 44-20 62l113-2a194 194 0 0 1 194 194c0 107-87 194-194 194a194 194 0 0 1-193-193z m308 111a114 114 0 1 1-227 1l-1-113 114-1a114 114 0 0 1 114 113z m-276-294c-21 37-29 76-31 103l-206 2c41-235 246-413 492-413a499 499 0 0 1 403 205h-462c-114 0-170 56-196 103z" horiz-adv-x="1000" />

<glyph glyph-name="shortcode-token-1" unicode="&#xe861;" d="M282 516v-332h93v-44h-137v420h137v-44z m344 44v-44h93v-332h-93v-44h137v420z m-345-505h-173v590h173v108h-281v-806h281z m-254 671h227v-54h-173v-644h173v-54h-227z m973 27h-281v-108h173v-590h-173v-108h281z m-254-725h173v644h-173v54h227v-752h-227z" horiz-adv-x="1000" />

<glyph glyph-name="lazybg-1" unicode="&#xe862;" d="M105 475l119 140h-105v53h200v-36l-120-140h123v-53h-217z m290-16l153 173h-136v31h191v-20l-153-173h157v-31h-212z m291-9l173 193h-155v18h186v-11l-173-193h178v-18h-209z m314-418h-1000l222 318h556z m-963 20h926l-195 279h-536z" horiz-adv-x="1000" />

<glyph glyph-name="rellax-fx-1" unicode="&#xe863;" d="M798 431a313 313 0 0 1 17 102c0 173-141 315-315 315s-315-142-315-315a313 313 0 0 1 18-102 310 310 0 0 1 4-190 305 305 0 0 1-13-88c0-168 138-305 306-305s306 137 306 305a305 305 0 0 1-13 88 310 310 0 0 1 5 190z m-298 28a305 305 0 0 1-224-98 283 283 0 0 0-45 84c41 108 146 186 269 186s228-78 269-186a283 283 0 0 0-45-84 305 305 0 0 1-224 98z m216-109a282 282 0 0 0-431 0 292 292 0 0 0 431 0z m-216-132a314 314 0 0 1 236 107 292 292 0 0 0 38-70c-38-116-146-199-274-199s-236 83-273 199a292 292 0 0 0 37 70 314 314 0 0 1 236-107z m245 118a315 315 0 0 1 38 59 288 288 0 0 0-3-119 306 306 0 0 1-35 60z m-245 480c156 0 283-127 283-283a282 282 0 0 0-5-53 310 310 0 0 1-556 0 282 282 0 0 0-5 53c0 156 127 283 283 283z m-283-421a315 315 0 0 1 38-59 306 306 0 0 1-35-60 288 288 0 0 0-3 119z m283-534c-161 0-292 131-292 292a293 293 0 0 0 8 66 310 310 0 0 1 568 0 293 293 0 0 0 8-66c0-161-131-292-292-292z" horiz-adv-x="1000" />

<glyph glyph-name="el-form-pro-conditions-fields-1" unicode="&#xe864;" d="M451 556a46 46 0 0 1-60-70 156 156 0 1 0-203 1 46 46 0 1 1-60 70 249 249 0 1 1 323-1z m-162-414a226 226 0 0 0-146 398 24 24 0 0 0 15 6c1 0 2 0 2 0a24 24 0 0 0 14-42 179 179 0 1 1 232 0 24 24 0 1 0 30 36 226 226 0 0 0-147-398z m0 182a46 46 0 0 1 46 46v284a46 46 0 0 1-92 0v-284a46 46 0 0 1 46-46z m-23 330a24 24 0 0 0 47 0v-284a24 24 0 0 0-47 0z m453-604h-91a41 41 0 0 1 0-82h91a41 41 0 1 1 0 82z m0-59h-91a18 18 0 1 0 0 36h91a18 18 0 1 0 0-36z m-120 395h372a11 11 0 1 0 0-23h-372a11 11 0 0 0 0 23z m383-66a11 11 0 0 0-11-11h-372a11 11 0 0 0 0 22h372a11 11 0 0 0 11-11z m-387-36v-222h387v222z m364-200h-66l66 73z m0 106a10 10 0 0 1-2-2l-94-103c0 0 0-1 0-1h-246v178h342z" horiz-adv-x="1000" />

<glyph glyph-name="el-form-pro-ext-buttoon-1" unicode="&#xe865;" d="M699 95h-92a42 42 0 1 1 0-83h92a42 42 0 0 1 0 83z m0-60h-92a19 19 0 0 0 0 37h92a19 19 0 0 0 0-37z m-122 405h381a12 12 0 0 0 0-23h-381a12 12 0 1 0 0 23z m392-68a12 12 0 0 0-11-11h-381a12 12 0 1 0 0 23h381a12 12 0 0 0 11-12z m-397-264h397v227h-397z m306 23l68 75v-75z m-283 181h351v-73a11 11 0 0 1-2-2l-97-106c0 0 0 0 0-1h-252z m-65 61a12 12 0 0 0-12-12h-156l95-79-101-7 93-180-47-24-93 181-67-80-14 189h-168a60 60 0 0 0-60 60v121a60 60 0 0 0 60 60h682a60 60 0 0 0 60-60v-47a12 12 0 1 0-23 0v47a37 37 0 0 1-37 37h-682a37 37 0 0 1-37-37v-121a37 37 0 0 1 37-37h166l-8 97 117-97h183a12 12 0 0 0 12-11z" horiz-adv-x="1000" />

<glyph glyph-name="reveals-fx-1" unicode="&#xe866;" d="M190 22h256v653h-256z m18 635h220v-617h-220z m-207 18h163v-653h-163z m470 0v-653h530v653z m512-635h-494v617h494z" horiz-adv-x="1000" />

<glyph glyph-name="el-form-pro-conditions-actions-1" unicode="&#xe867;" d="M552 440l-40 15a209 209 0 0 1-2 61l39 17a28 28 0 0 1 14 37l-20 44a28 28 0 0 1-37 14l-38-17a211 211 0 0 1-44 41l15 40a28 28 0 0 1-16 35l-46 18a28 28 0 0 1-36-16l-15-40a210 210 0 0 1-60-2l-17 39a27 27 0 0 1-16 14 28 28 0 0 1-21 0l-45-20a28 28 0 0 1-13-37l17-39a210 210 0 0 1-41-44l-40 15a28 28 0 0 1-36-16l-17-45a28 28 0 0 1 16-36l40-15a210 210 0 0 1 2-60l-39-18a28 28 0 0 1-14-36l20-45a28 28 0 0 1 37-14l38 18a209 209 0 0 1 44-42l-15-39a28 28 0 0 1 16-36l46-17a28 28 0 0 1 36 16l15 39a209 209 0 0 1 60 2l17-38a28 28 0 0 1 16-15 28 28 0 0 1 21 1l45 20a28 28 0 0 1 13 36h0l-17 39a210 210 0 0 1 41 44l40-15a28 28 0 0 1 36 16l17 46a28 28 0 0 1-16 35z m-3-28l-17-46a7 7 0 0 0-4-4 7 7 0 0 0-6 0l-47 18a10 10 0 0 1-12-4 190 190 0 0 0-48-50 10 10 0 0 1-3-13l21-46a7 7 0 0 0-4-9l-44-21a7 7 0 0 0-6 0 7 7 0 0 0-4 4l-21 46a10 10 0 0 1-11 6 189 189 0 0 0-69-2 10 10 0 0 1-11-7l-18-47a7 7 0 0 0-10-4l-45 17a7 7 0 0 0-4 4 7 7 0 0 0-1 6l18 47a10 10 0 0 1-4 12 190 190 0 0 0-50 47 10 10 0 0 1-12 4l-46-21a7 7 0 0 0-10 4l-20 44a7 7 0 0 0 0 6 7 7 0 0 0 4 4l46 21a10 10 0 0 1 5 11 190 190 0 0 0-2 69 10 10 0 0 1-6 11l-48 18a7 7 0 0 0-4 4 7 7 0 0 0 0 5l17 46a7 7 0 0 0 10 4l47-17a10 10 0 0 1 12 4 190 190 0 0 0 48 50 10 10 0 0 1 3 12l-21 46a7 7 0 0 0 4 10l44 20a7 7 0 0 0 6 0 7 7 0 0 0 4-4l21-46a10 10 0 0 1 11-5 189 189 0 0 0 69 2 10 10 0 0 1 11 6l18 47a7 7 0 0 0 4 4 7 7 0 0 0 6 0l45-17a7 7 0 0 0 5-9l-18-48a10 10 0 0 1 4-12 190 190 0 0 0 50-47 10 10 0 0 1 13-3l46 20a7 7 0 0 0 9-3l20-45a7 7 0 0 0-3-9l-46-21a10 10 0 0 1-6-11 190 190 0 0 0 2-70 10 10 0 0 1 6-11l48-17a7 7 0 0 0 4-4 7 7 0 0 0 0-6z m-246 140a73 73 0 1 1 72-73 73 73 0 0 1-72 73z m0-125a52 52 0 1 0 52 52 53 53 0 0 0-52-52z m416-377h-91a41 41 0 0 1 0-82h91a41 41 0 1 1 0 82z m0-59h-91a18 18 0 1 0 0 36h91a18 18 0 1 0 0-36z m-120 395h372a11 11 0 1 0 0-23h-372a11 11 0 0 0 0 23z m383-66a11 11 0 0 0-11-11h-372a11 11 0 0 0 0 22h372a11 11 0 0 0 11-11z m-387-36v-222h387v222z m364-200h-66l66 73z m0 106a10 10 0 0 1-2-2l-94-103c0 0 0-1 0-1h-246v178h342z" horiz-adv-x="1000" />

<glyph glyph-name="portfolio-skinbase-template-1" unicode="&#xe868;" d="M300 19h-300v297h300z m-274 26h249v246h-249z m274 339h-300v297h300z m-274 26h249v246h-249z m624-391h-300v297h300z m-274 26h249v246h-249z m274 339h-300v297h300z m-274 26h249v246h-249z m624-391h-300v297h300z m-274 26h248v246h-248z m274 339h-300v297h300z m-274 26h248v246h-248z" horiz-adv-x="1000" />

<glyph glyph-name="portfolio-skin-template-1" unicode="&#xe869;" d="M913-86h-1l-824 6a88 88 0 0 0-88 89v689a88 88 0 0 0 88 88h233c47 0 96-34 112-78l12-35c12-32 50-59 84-59h383a88 88 0 0 0 88-87v-526a87 87 0 0 0-87-87z m-825 35l825-6a57 57 0 0 1 41 17 57 57 0 0 1 17 41v526a59 59 0 0 1-59 58h-383c-46 0-95 35-111 78l-13 35c-11 32-50 59-84 59h-233a59 59 0 0 1-59-59v-689a59 59 0 0 1 59-60z m282 83h-214v212h214z m-185 29h155v154h-155z m185 216h-214v212h214z m-185 29h155v154h-155z m420-274h-214v212h214z m-185 29h155v154h-155z m185 216h-214v212h214z m-185 29h155v154h-155z m420-274h-214v212h214z m-185 29h156v154h-156z m185 216h-214v212h214z m-185 29h156v154h-156z" horiz-adv-x="1000" />

<glyph glyph-name="el-form-pro-ext-slider-1" unicode="&#xe86a;" d="M705 29h-93a42 42 0 0 1 0-84h93a42 42 0 0 1 0 84z m0-61h-93a19 19 0 0 0 0 38h93a19 19 0 0 0 0-38z m-135 397a12 12 0 0 1 11-12h385a12 12 0 0 1 0 23h-385a12 12 0 0 1-11-11z m396-45h-385a12 12 0 0 1 0-23h385a12 12 0 0 1 0 23z m-389-278h400v229h-400z m308 23l69 75v-75z m-285 183h354v-74a11 11 0 0 1-2-2l-98-107c0 0 0 0 0 0h-254z m353 199a32 32 0 1 1 0 64h-564v56a45 45 0 0 1-45 45h-40a45 45 0 0 1-45-45v-56h-212a32 32 0 1 1 0-64h212v-57a45 45 0 0 1 45-45h40a45 45 0 0 1 45 45v57z m0 42a9 9 0 0 0 0-19h-564v19z m-906-19a9 9 0 0 0 0 19h212v-19z m320-80a23 23 0 0 0-23-22h-40a23 23 0 0 0-23 22v177a23 23 0 0 0 23 22h40a23 23 0 0 0 23-22z" horiz-adv-x="1000" />

<glyph glyph-name="el-form-pro-advanced-steps-displayall" unicode="&#xe86b;" d="M710 62h-89a40 40 0 0 1 0-80h89a40 40 0 0 1 0 80z m0-58h-89a18 18 0 0 0 0 36h89a18 18 0 0 0 0-36z m261 380a11 11 0 0 0-12-11h-367a11 11 0 0 0 0 22h367a11 11 0 0 0 12-11z m0-54a11 11 0 0 0-12-11h-367a11 11 0 1 0 0 22h367a11 11 0 0 0 12-11z m-384-255h384v220h-384z m295 22l66 72v-72z m-272 175h338v-70a11 11 0 0 1-2-2l-93-102a5 5 0 0 1-1-1h-242z m328 290a62 62 0 0 1-61-51h-35a62 62 0 0 1-121 0h-52a56 56 0 1 1 0-22h52a62 62 0 0 1 121 0h35a62 62 0 1 1 61 73z m-307-81h-31v10h10v21h-9v7a29 29 0 0 1 13 4h8v-33h9z m151-21a40 40 0 1 0 39 40 40 40 0 0 0-39-40z m156 0a40 40 0 1 0 40 40 40 40 0 0 0-40-40z m-149 31h8v-9h-32v6c11 9 19 16 19 22 0 3-2 5-6 5-3 0-5-2-7-4l-6 6a20 20 0 0 0 15 7c9 0 15-6 15-14 0-6-7-14-14-20 3 1 6 1 8 1z m166 1c0-8-8-12-17-12-7 0-12 2-15 6l5 7a15 15 0 0 1 9-4c4 0 7 1 7 4 0 3-2 5-11 5v8c7 0 10 2 10 5 0 2-2 4-5 4a13 13 0 0 1-9-4l-5 7a23 23 0 0 0 14 5c10 0 16-4 16-11 0-4-3-7-8-9v-1c6-1 9-4 9-10z m-723 226h-232v-303h232z m-23-281h-187v259h187z m-209-360h507v303h-507z m22 281h463v-258h-463z m254 57h231v303h-231z m22 281h187v-259h-187z m-142-179h-76v22h26v52h-22v17c14 2 21 5 30 10h20v-79h22z m251 23h20v-23h-78v15c27 22 47 39 47 53 0 9-6 13-15 13-7 0-13-5-19-9l-14 14c11 12 21 17 37 17 22 0 37-13 37-34 0-16-17-34-34-48 6 1 14 2 19 2z m-118-333c0-19-20-30-42-30-17 0-30 6-38 15l12 17c7-6 16-10 23-10 10 0 17 3 17 10 0 7-6 12-28 12v19c18 0 25 5 25 12 0 6-5 9-13 9-7 0-13-3-20-8l-14 16a55 55 0 0 0 35 13c24 0 39-10 39-28 0-10-6-17-18-22v-1c12-3 21-11 21-24z" horiz-adv-x="1000" />

<glyph glyph-name="el-form-pro-ext-width-1" unicode="&#xe86c;" d="M722 68h-88a40 40 0 0 1 0-80h88a40 40 0 0 1 0 80z m0-58h-88a18 18 0 1 0 0 36h88a18 18 0 1 0 0-36z m-117 389a11 11 0 1 1 0-22h366a11 11 0 0 1 0 22z m366-53h-366a11 11 0 0 1 0-22h366a11 11 0 0 1 0 22z m-371-266h382v219h-382z m294 22l66 72v-72z m-272 175h338v-71a11 11 0 0 1-2-1l-93-102a5 5 0 0 1-1-1h-242z m-545 286h-24v105h-26c-10-7-20-10-35-13v-23h25v-69h-29v-29h89z m68-31c30 0 50 24 50 70s-20 68-50 68-50-23-50-68 21-70 50-70z m0 110c9 0 16-5 16-40s-7-43-16-43-15 7-15 43 7 40 15 40z m146 0c10 0 17-6 17-18 0-18-25-40-56-69v-21h97v31h-23a211 211 0 0 1-22-2c18 18 38 42 38 63 0 27-19 44-46 44-19 0-32-6-46-21l19-20c7 7 14 13 22 13z m124-110c29 0 50 24 50 70s-21 68-50 68-50-23-50-68 20-70 50-70z m0 110c8 0 16-5 16-40s-8-43-16-43-16 7-16 43 8 40 16 40z m203-71c0 17-11 27-26 32v1c14 6 21 16 21 29 0 24-19 37-48 37-16 0-30-6-43-17l18-22c8 7 14 11 23 11s14-4 14-12c0-10-7-15-29-15v-26c28 0 33-6 33-16 0-8-7-12-19-12-9 0-19 5-27 12l-17-22c10-12 26-19 48-19 28 0 52 14 52 39z m67-39c29 0 49 24 49 70s-20 68-49 68-50-23-50-68 20-70 50-70z m0 110c8 0 15-5 15-40s-7-43-15-43-16 7-16 43 7 40 16 40z m132-110c13 0 21 9 21 22s-8 22-21 22-21-10-21-22 9-22 21-22z m68 0c12 0 21 9 21 22s-9 22-21 22-21-10-21-22 9-22 21-22z m67 0c12 0 21 9 21 22s-9 22-21 22-21-10-21-22 9-22 21-22z m-545-195a11 11 0 0 1 0-16l56-56h-422l56 56a11 11 0 1 1-16 16l-83-83 83-83a11 11 0 0 1 16 16l-56 56h422l-56-56a11 11 0 0 1 16-16l83 83-83 83a11 11 0 0 1-16 0z" horiz-adv-x="1000" />

<glyph glyph-name="el-form-pro-ext-date-1" unicode="&#xe86d;" d="M669 41h-100a45 45 0 0 1 0-90h100a45 45 0 1 1 0 90z m0-65h-100a20 20 0 1 0 0 40h100a20 20 0 0 0 0-40z m-145 424a12 12 0 0 1 13-12h410a12 12 0 0 1 0 24h-410a12 12 0 0 1-13-12z m423-48h-410a12 12 0 0 1 0-25h410a12 12 0 0 1 0 25z m-415-297h427v245h-427z m329 24l74 81v-81z m-304 196h378v-79a13 13 0 0 1-3-2l-104-114c0 0 0 0-1-1h-270z m-60-136h-417v423h611v-119a12 12 0 1 1 22 0v305h-84v68a12 12 0 0 1-23 0v-68h-129v68a12 12 0 0 1-23 0v-68h-129v68a12 12 0 0 1-23 0v-68h-129v68a12 12 0 0 1-23 0v-68h-93v-632h440a12 12 0 1 1 0 23z m-347 587v-81a12 12 0 1 1 23 0v81h129v-81a12 12 0 1 1 23 0v81h129v-81a12 12 0 0 1 23 0v81h129v-81a12 12 0 1 1 23 0v81h62v-141h-611v141z" horiz-adv-x="1000" />

<glyph glyph-name="el-form-pro-ext-mask-1" unicode="&#xe86e;" d="M698 26h-89a40 40 0 0 1 0-80h89a40 40 0 1 1 0 80z m0-58h-89a18 18 0 0 0 0 36h89a18 18 0 0 0 0-36z m-118 391h367a11 11 0 0 0 0-23h-367a11 11 0 0 0 0 23z m378-65a11 11 0 0 0-11-11h-367a11 11 0 1 0 0 22h367a11 11 0 0 0 11-11z m-382-255h382v219h-382z m360 22h-66l66 72z m-338 175h338v-71a11 11 0 0 1-2-2l-93-101a5 5 0 0 1-1-1h-242z m-63 58a11 11 0 0 0-11-11h-441a58 58 0 0 0-58 58v116a58 58 0 0 0 58 58h657a58 58 0 0 0 57-58v-46a11 11 0 0 0-22 0v46a36 36 0 0 1-35 35h-657a36 36 0 0 1-36-35v-117a36 36 0 0 1 36-35h441a11 11 0 0 0 11-11z m-452 312h-56v11h56z m106 0h-56v11h56z m40-2h-13l21 103h13z m106 2h-56v11h56z m82 0h-56v11h57z m40-2h-13l21 103h13z m106 2h-56v11h56z m83 0h-56v11h56z m83 0h-57v11h57z m82 0h-56v11h56z" horiz-adv-x="1000" />

<glyph glyph-name="el-form-pro-ext-change-1" unicode="&#xe86f;" d="M702 27h-89a40 40 0 0 1 0-80h89a40 40 0 0 1 0 80z m0-58h-89a18 18 0 0 0 0 36h89a18 18 0 0 0 0-36z m249 389h-367a11 11 0 0 1 0-22h367a11 11 0 1 1 0 22z m0-53h-367a11 11 0 0 1 0-22h367a11 11 0 1 1 0 22z m-371-266h382v219h-382z m294 22l66 72v-72z m-272 175h338v-71a11 11 0 0 1-3-1l-93-102c0 0 0-1 0-1h-242z m251 215a127 127 0 1 1-127 127 127 127 0 0 1 127-127z m0 232a105 105 0 1 0-105-105 105 105 0 0 0 105 105z m-2-129c-8 0-16 4-22 9l-12-16c8-8 20-14 36-14 21 0 39 10 39 28 0 12-8 20-20 23v1c11 4 17 11 17 20 0 18-14 27-36 27a52 52 0 0 1-33-12l13-16c6 5 12 8 18 8 8 0 12-3 12-9 0-6-6-10-23-10v-18c21 0 26-5 26-12 0-6-6-9-15-9z m-739 153a129 129 0 1 1 129-129 129 129 0 0 1-129 129z m39-170h-71v20h25v50h-21v16c13 2 20 4 27 9h19v-75h21z m444-20a11 11 0 0 1 16-16l83 83-83 83a11 11 0 1 1-16-16l56-56h-340a11 11 0 0 1 0-22h340z" horiz-adv-x="1000" />

<glyph glyph-name="el-form-pro-act-send-whatsapp-1" unicode="&#xe870;" d="M592 380h78l2 10a332 332 0 0 1 3 45c0 87-36 170-100 235a330 330 0 0 1-235 97c-183 0-332-149-332-332a333 333 0 0 1 42-162l-50-180 185 48a333 333 0 0 1 155-38 337 337 0 0 1 212 76l4 3v111l-20-23a260 260 0 0 0-196-90 255 255 0 0 0-130 35l-14 8-87-22 23 84-9 14a255 255 0 0 0-39 136c0 141 115 256 256 256a253 253 0 0 0 180-75c51-51 78-115 78-181a251 251 0 0 0-3-42z m-56 252a276 276 0 0 1-196 81c-153 0-278-124-278-278a277 277 0 0 1 42-148l4-6-31-112 115 30 6-3a278 278 0 0 1 142-39 282 282 0 0 1 194 78v-42a314 314 0 0 0-194-67 310 310 0 0 0-148 37l-4 2-156-41 42 152-3 4a311 311 0 0 0-41 155c0 171 139 310 310 310a307 307 0 0 0 219-91c60-61 93-138 93-219a306 306 0 0 0-1-32h-32a271 271 0 0 1 2 32c0 72-30 142-85 197z m78-290h375a11 11 0 0 0 0-22h-375a11 11 0 0 0 0 22z m386-66a11 11 0 0 0-11-11h-375a11 11 0 1 0 0 22h375a11 11 0 0 0 11-11z m-390-261h390v225h-390z m22 202h345v-72a11 11 0 0 0 15-17l-15-16v-74h-67l-13-14a11 11 0 0 0-17 14h-248z m103-214h-91a41 41 0 0 1 0-82h91a41 41 0 1 1 0 82z m0-59h-91a18 18 0 0 0 0 36h91a18 18 0 1 0 0-36z m-440 547c4 7 3 15-1 24-1 2-10 25-16 40-3 7-6 14-8 19-8 18-18 20-27 20h0c0 0-1 0-1 0-5 1-10 1-16 1a41 41 0 0 1-30-14l-1-2c-9-9-30-31-30-73 0-36 22-71 35-89l0 0c1-1 1-1 2-2 23-34 72-94 140-123 39-17 62-23 82-23a137 137 0 0 1 20 2c17 3 55 21 63 46 6 16 9 38 4 47-3 6-9 9-16 12l-4 2c-5 3-47 24-56 27-6 2-20 7-31-9-5-7-18-23-25-30a6 6 0 0 0 0-1 15 15 0 0 0-3 2c-46 22-75 40-105 91 0 0 0 0 0 0 1 1 2 2 3 4a110 110 0 0 1 21 29z m-43-45c32-56 66-76 113-100 13-6 23-4 31 5 2 2 20 23 27 33a10 10 0 0 0 0 1 42 42 0 0 0 4-2c6-2 44-20 54-25l4-2c2-1 5-2 6-3 0-4 0-15-5-29-5-13-32-29-45-31-24-3-42-1-90 20-47 20-93 61-131 115l-2 2 0 1c-19 26-30 53-30 75 0 33 15 49 23 58l2 2a18 18 0 0 0 13 6c5 0 10 0 15 0 0 0 1 0 2 0h2s2-1 4-7c2-5 5-12 8-19 9-23 15-38 17-41 1-3 1-4 1-4a87 87 0 0 0-17-24c-7-6-15-16-6-31z m723-303a12 12 0 0 0 2 2v-33l-67-74h-30c0 0 0 1 0 1z" horiz-adv-x="1000" />

<glyph glyph-name="el-form-pro-ext-length-1" unicode="&#xe871;" d="M717 18h-92a41 41 0 0 1 0-83h92a41 41 0 1 1 0 83z m0-60h-92a19 19 0 1 0 0 37h92a19 19 0 0 0 0-37z m-122 403h379a11 11 0 0 0 0-23h-379a11 11 0 0 0 0 23z m391-67a11 11 0 0 0-12-11h-379a11 11 0 0 0 0 22h379a11 11 0 0 0 12-11z m-395-263h395v226h-395z m304 23l68 74v-74z m-281 181h349v-74a13 13 0 0 1-2-2l-96-105c-1 0-1 0-1-1h-250z m-66 60a11 11 0 0 0-11-12h-456a60 60 0 0 0-60 60v120a60 60 0 0 0 60 59h679a60 60 0 0 0 60-59v-47a11 11 0 0 0-23 0v47a37 37 0 0 1-37 37h-679a37 37 0 0 1-37-37v-120a37 37 0 0 1 37-37h456a11 11 0 0 0 11-12z m-427 313h-21v99h25l16-44c2-6 4-12 6-18h0c2 6 4 12 6 18l15 44h25v-99h-20v36c0 10 1 24 2 34h0l-8-23-14-38h-13l-14 38-8 23h0c1-10 3-24 3-34z m118 0h-23v99h23z m44 0h-21v99h23l26-49 10-22h0c-1 11-3 24-3 36v35h22v-99h-23l-26 50-10 21h0c1-11 2-24 2-36z m222 0h-20v99h24l16-44c2-6 4-12 6-18h1c2 6 3 12 5 18l16 44h24v-99h-20v36c0 10 2 24 3 34h-1l-8-23-14-38h-12l-14 38-8 23h-1c1-10 3-24 3-34z m112 24h30l6-24h48l9 20c2 5 5 10 7 17h1c2-6 5-12 7-17l10-20h25l-28 50 26 49h-24l-8-19c-2-4-4-9-6-15h-1c-2 6-5 11-7 15l-8 19h-25l25-48-27-51-31 99h-27l-31-99h23z m15 58h0c3-10 6-22 8-32l3-9h-21l2 9c3 10 5 22 8 32z" horiz-adv-x="1000" />

<glyph glyph-name="el-form-pro-ext-inline-1" unicode="&#xe872;" d="M688 40h-98a44 44 0 0 1 0-89h98a44 44 0 0 1 0 89z m0-64h-98a20 20 0 0 0 0 39h98a20 20 0 1 0 0-39z m276 432h-406a12 12 0 1 1 0-25h406a12 12 0 0 1 0 25z m0-60h-406a12 12 0 0 1 0-24h406a12 12 0 0 1 0 24z m-411-295h423v244h-423z m326 25l73 80v-80z m-302 194h375v-78a12 12 0 0 1-3-2l-103-113c0 0 0-1 0-1h-269z m-545 219h300v188h-300z m22 167h257v-145h-257z m600 21h-300v-188h300z m-21-166h-257v145h257z m43 166v-188h300v188z m279-166h-257v145h257z" horiz-adv-x="1000" />

<glyph glyph-name="el-form-pro-act-field-submit-1" unicode="&#xe873;" d="M704 28h-91a41 41 0 1 1 0-83h91a41 41 0 0 1 0 83z m0-60h-91a18 18 0 1 0 0 37h91a18 18 0 0 0 0-37z m-121 401h377a11 11 0 0 0 0-23h-377a11 11 0 0 0 0 23z m388-67a11 11 0 0 0-11-11h-377a11 11 0 0 0 0 22h377a11 11 0 0 0 11-11z m-393-262h393v226h-393z m303 23l67 74v-74z m-280 180h347v-73a12 12 0 0 1-2-2l-96-105c0 0 0 0 0 0h-249z m-65 59a11 11 0 0 0-11-11h-453a59 59 0 0 0-59 59v120a59 59 0 0 0 59 59h674a59 59 0 0 0 60-59v-47a11 11 0 0 0-23 0v47a36 36 0 0 1-37 36h-674a36 36 0 0 1-37-36v-120a36 36 0 0 1 37-36h453a11 11 0 0 0 11-12z m-253 145h263v-74h-263z" horiz-adv-x="1000" />

<glyph glyph-name="el-form-pro-act-message-1" unicode="&#xe874;" d="M706 25h-93a42 42 0 1 1 0-84h93a42 42 0 1 1 0 84z m0-61h-93a19 19 0 1 0 0 38h93a19 19 0 1 0 0-38z m-124 410h386a12 12 0 1 0 0-23h-386a12 12 0 0 0 0 23z m397-68a12 12 0 0 0-11-12h-386a12 12 0 0 0 0 24h386a12 12 0 0 0 11-12z m-401-268h401v231h-401z m309 23l69 76v-76z m-286 184h355v-74a12 12 0 0 1-2-2l-98-107c0 0 0-1-1-1h-254z m-177-42v-23c-112 0-218 32-298 90-81 59-126 138-126 222s45 164 126 223c80 58 186 90 298 90s219-32 299-90c81-59 126-138 126-223h-24c0 160-180 290-401 290s-401-130-401-290 180-289 401-289z m199 350h-421v23h421z m-421-49h421v-23h-421z m0-73h222v-23h-222z" horiz-adv-x="1000" />

<glyph glyph-name="el-form-pro-ext-address-1" unicode="&#xe875;" d="M667-7h-95a43 43 0 0 1 0-85h95a43 43 0 1 1 0 85z m0-62h-95a19 19 0 1 0 0 38h95a19 19 0 1 0 0-38z m-137 403a12 12 0 0 1 11-11h390a12 12 0 0 1 0 23h-390a12 12 0 0 1-11-12z m402-45h-390a12 12 0 0 1 0-24h390a12 12 0 0 1 0 24z m-395-283h406v233h-406z m313 24l70 76v-76z m-290 186h360v-75a11 11 0 0 1-3-2l-98-109c-1 0-1 0-1 0h-258z m-325 318a112 112 0 1 1 113 112 112 112 0 0 1-113-112z m201 0a89 89 0 1 0-88 89 89 89 0 0 0 88-89z m47-347a12 12 0 0 1-16-4c-50-78-99-145-119-172-49 65-270 369-270 503 0 149 121 270 270 270s269-121 269-270c0-20-5-46-16-77a12 12 0 1 1 23-7c11 33 17 61 17 84 0 162-132 293-293 293s-293-131-293-293c0-157 272-514 283-530l10-12 9 12c1 1 64 84 130 186a12 12 0 0 1-4 17z" horiz-adv-x="1000" />

<glyph glyph-name="el-form-pro-advanced-steps-save" unicode="&#xe876;" d="M686 16h-97a44 44 0 1 1 0-87h97a44 44 0 1 1 0 87z m0-63h-97a20 20 0 1 0 0 39h97a20 20 0 1 0 0-39z m282 411a12 12 0 0 0-12-12h-398a12 12 0 1 0 0 24h398a12 12 0 0 0 12-12z m0-58a12 12 0 0 0-12-12h-398a12 12 0 1 0 0 24h398a12 12 0 0 0 12-12z m-415-277h415v238h-415z m319 24l72 79v-79z m-295 190h367v-76a12 12 0 0 1-3-2l-100-111a7 7 0 0 1-1-1h-263z m356 314a67 67 0 0 1-66-55h-38a67 67 0 0 1-132 0h-55a61 61 0 1 1 0-24h55a67 67 0 0 1 132 0h38a67 67 0 1 1 66 79z m-333-87h-34v10h12v23h-10v8a31 31 0 0 1 13 4h9v-35h10z m163-23a43 43 0 1 0 43 43 43 43 0 0 0-43-43z m170 0a43 43 0 1 0 43 43 43 43 0 0 0-43-43z m-162 33h9v-10h-34v7c12 10 20 17 20 23 0 4-2 6-6 6-3 0-6-2-8-4l-7 7a21 21 0 0 0 17 7c9 0 16-6 16-15 0-7-7-15-15-22a79 79 0 0 0 8 1z m181 2c0-9-9-14-19-14-7 0-13 3-17 7l6 7a17 17 0 0 1 10-4c4 0 7 2 7 4 0 4-2 6-12 6v8c8 0 11 2 11 5 0 3-2 5-6 5a14 14 0 0 1-9-4l-6 7a25 25 0 0 0 16 6c10 0 17-4 17-13 0-4-3-7-8-9v-1c6-1 10-5 10-10z m-454-358a12 12 0 0 0-12-12h-422a64 64 0 0 0-64 64v531a64 64 0 0 0 64 64h532a64 64 0 0 0 64-64v-95a12 12 0 0 0-24 0v95a40 40 0 0 1-40 40h-33v-135a12 12 0 0 0-24 0v134h-65v-170h-117v170h-243v-267h341a12 12 0 1 0 0-24h-365v292h-26a40 40 0 0 1-40-40v-531a40 40 0 0 1 40-40h422a12 12 0 0 0 12-12z" horiz-adv-x="1000" />

<glyph glyph-name="el-form-pro-advanced-steps-legend" unicode="&#xe877;" d="M681 13h-98a44 44 0 0 1 0-88h98a44 44 0 0 1 0 88z m0-64h-98a20 20 0 1 0 0 40h98a20 20 0 0 0 0-40z m287 418a12 12 0 0 0-13-12h-404a12 12 0 0 0 0 24h404a12 12 0 0 0 13-12z m0-59a12 12 0 0 0-13-12h-404a12 12 0 0 0 0 24h404a12 12 0 0 0 13-12z m-422-281h422v241h-422z m325 24l72 80v-80z m-300 193h372v-78a12 12 0 0 1-2-2l-103-112c0 0 0-1 0-1h-267z m361 318a68 68 0 0 1-67-56h-38a68 68 0 0 1-134 0h-57a62 62 0 1 1 0-24h57a68 68 0 0 1 134 0h38a68 68 0 1 1 67 80z m-338-88h-34v10h12v24h-10v7a32 32 0 0 1 13 5h9v-36h10z m166-24a44 44 0 1 0 43 44 44 44 0 0 0-43-44z m172 0a44 44 0 1 0 44 44 44 44 0 0 0-44-44z m-164 34h9v-10h-35v7c12 10 21 18 21 24 0 4-3 6-7 6-3 0-6-2-8-4l-7 6a21 21 0 0 0 17 8c10 0 17-6 17-15 0-8-8-16-15-22 2 0 6 0 8 0z m183 2c0-9-9-14-19-14-8 0-14 3-17 7l5 8a17 17 0 0 1 11-5c4 0 8 2 8 5 0 3-3 5-13 5v9c8 0 11 2 11 5 0 3-2 4-6 4a14 14 0 0 1-9-3l-6 7a25 25 0 0 0 16 6c10 0 18-5 18-13 0-4-3-8-9-10v0c6-2 10-5 10-11z m-450-325a12 12 0 0 0-12-12h-489v585h85a12 12 0 0 0 0-24h-61v-536h465a12 12 0 0 0 12-13z m12 561a12 12 0 0 0 13 12h150v-125a12 12 0 0 0-24 0v101h-126a12 12 0 0 0-13 12z m-33-40h-341v93h341z" horiz-adv-x="1000" />

<glyph glyph-name="el-form-pro-advanced-steps-summary" unicode="&#xe878;" d="M686 16h-97a44 44 0 1 1 0-87h97a44 44 0 1 1 0 87z m0-63h-97a20 20 0 1 0 0 39h97a20 20 0 1 0 0-39z m282 411a12 12 0 0 0-12-12h-398a12 12 0 1 0 0 24h398a12 12 0 0 0 12-12z m0-58a12 12 0 0 0-12-12h-398a12 12 0 1 0 0 24h398a12 12 0 0 0 12-12z m-415-277h415v238h-415z m319 24l72 79v-79z m-295 190h367v-76a12 12 0 0 1-3-2l-100-111a7 7 0 0 1-1-1h-263z m356 314a67 67 0 0 1-66-55h-38a67 67 0 0 1-132 0h-55a61 61 0 1 1 0-24h55a67 67 0 0 1 132 0h38a67 67 0 1 1 66 79z m-333-87h-34v10h12v23h-10v8a31 31 0 0 1 13 4h9v-35h10z m163-23a43 43 0 1 0 43 43 43 43 0 0 0-43-43z m170 0a43 43 0 1 0 43 43 43 43 0 0 0-43-43z m-162 33h9v-10h-34v7c12 10 20 17 20 23 0 4-2 6-6 6-3 0-6-2-8-4l-7 7a21 21 0 0 0 17 7c9 0 16-6 16-15 0-7-7-15-15-22a79 79 0 0 0 8 1z m181 2c0-9-9-14-19-14-7 0-13 3-17 7l6 7a17 17 0 0 1 10-4c4 0 7 2 7 4 0 4-2 6-12 6v8c8 0 11 2 11 5 0 3-2 5-6 5a14 14 0 0 1-9-4l-6 7a25 25 0 0 0 16 6c10 0 17-4 17-13 0-4-3-7-8-9v-1c6-1 10-5 10-10z m-489 87h-463v202h660v-157a12 12 0 1 0-24 0v133h-612v-154h439a12 12 0 0 0 0-24z m-84 113a12 12 0 0 0 0-24h-297a12 12 0 1 0 0 24z m124-337a12 12 0 0 0-12-12h-491v202h464a12 12 0 0 0 0-24h-440v-154h467a12 12 0 0 0 12-12z m-234 101a12 12 0 0 0 0-24h-186a12 12 0 1 0 0 24z m222-171h-467v-155h467a12 12 0 0 0 0-24h-491v203h491a12 12 0 0 0 0-24z m-28-65a12 12 0 0 0 0-24h-381a12 12 0 1 0 0 24z" horiz-adv-x="1000" />

<glyph glyph-name="el-form-pro-ext-password-1" unicode="&#xe879;" d="M709 1h-94a42 42 0 1 1 0-85h94a42 42 0 0 1 0 85z m0-61h-94a19 19 0 1 0 0 37h94a19 19 0 0 0 0-37z m-124 409h385a12 12 0 0 0 0-23h-385a12 12 0 0 0 0 23z m397-68a12 12 0 0 0-12-11h-385a12 12 0 0 0 0 23h385a12 12 0 0 0 12-12z m-402-268h402v231h-402z m379 24h-70l70 76z m-355 184h355v-75a11 11 0 0 1-3-2l-97-107c-1 0-1 0-1 0h-254z m-67 61a12 12 0 0 0-11-12h-464a61 61 0 0 0-60 60v123a61 61 0 0 0 60 60h690a61 61 0 0 0 61-60v-48a12 12 0 0 0-24 0v48a37 37 0 0 1-37 37h-690a37 37 0 0 1-37-37v-123a37 37 0 0 1 37-37h464a12 12 0 0 0 11-11z m-404 155a45 45 0 1 0-45-45 45 45 0 0 0 45 45z m138 0a45 45 0 1 0-45-45 45 45 0 0 0 45 45z m138 0a45 45 0 1 0-45-45 45 45 0 0 0 45 45z m187 257a26 26 0 0 1 37 36 52 52 0 1 0-37-36z m50-119c68 0 126 39 156 97a18 18 0 0 1 0 16c-30 58-88 97-156 97s-125-39-155-97a18 18 0 0 1 0-16c30-58 88-97 155-97z m0 184a79 79 0 0 0 0-158h0a79 79 0 1 0 0 158z" horiz-adv-x="1000" />

<glyph glyph-name="el-form-pro-field-amount-1" unicode="&#xe87a;" d="M475 173h-266a85 85 0 0 0-85 85v438a85 85 0 0 0 85 85h325a85 85 0 0 0 85-85v-274a11 11 0 1 0-23 0v274a63 63 0 0 1-62 63h-325a63 63 0 0 1-63-63v-438a63 63 0 0 1 63-63h266a11 11 0 0 0 0-22z m103 456v59a41 41 0 0 1-41 41h-326a41 41 0 0 1-42-41v-59a41 41 0 0 1 42-41h326a41 41 0 0 1 41 41z m-41 78a19 19 0 0 0 18-19v-59a19 19 0 0 0-18-19h-326a19 19 0 0 0-19 19v59a19 19 0 0 0 19 19z m-241-226v38a34 34 0 0 1-34 34h-55a34 34 0 0 1-33-34v-38a34 34 0 0 1 33-34h55a34 34 0 0 1 34 34z m-34 49a11 11 0 0 0 12-11v-38a11 11 0 0 0-12-12h-55a11 11 0 0 0-11 12v38a11 11 0 0 0 11 11z m174-49v38a34 34 0 0 1-34 34h-55a34 34 0 0 1-33-34v-38a34 34 0 0 1 33-34h55a34 34 0 0 1 34 34z m-34 49a11 11 0 0 0 12-11v-38a11 11 0 0 0-12-12h-55a11 11 0 0 0-11 12v38a11 11 0 0 0 11 11z m174-49v38a34 34 0 0 1-34 34h-54a34 34 0 0 1-34-34v-38a34 34 0 0 1 34-34h54a34 34 0 0 1 34 34z m-34 49a11 11 0 0 0 12-11v-38a11 11 0 0 0-12-12h-54a11 11 0 0 0-12 12v38a11 11 0 0 0 12 11z m-246-169v38a34 34 0 0 1-34 34h-55a34 34 0 0 1-33-34v-38a34 34 0 0 1 33-34h55a34 34 0 0 1 34 34z m-34 49a11 11 0 0 0 12-11v-38a11 11 0 0 0-12-12h-55a11 11 0 0 0-11 12v38a11 11 0 0 0 11 11z m174-49v38a34 34 0 0 1-34 34h-55a34 34 0 0 1-33-34v-38a34 34 0 0 1 33-34h55a34 34 0 0 1 34 34z m-34 49a11 11 0 0 0 12-11v-38a11 11 0 0 0-12-12h-55a11 11 0 0 0-11 12v38a11 11 0 0 0 11 11z m-106-169v38a34 34 0 0 1-34 34h-55a34 34 0 0 1-33-34v-38a34 34 0 0 1 33-34h55a34 34 0 0 1 34 34z m-34 49a11 11 0 0 0 12-11v-38a11 11 0 0 0-12-12h-55a11 11 0 0 0-11 12v38a11 11 0 0 0 11 11z m174-49v38a34 34 0 0 1-34 34h-55a34 34 0 0 1-33-34v-38a34 34 0 0 1 33-34h55a34 34 0 0 1 34 34z m-34 49a11 11 0 0 0 12-11v-38a11 11 0 0 0-12-12h-55a11 11 0 0 0-11 12v38a11 11 0 0 0 11 11z m143 360v20a30 30 0 1 1-60 0v-20a30 30 0 1 1 60 0z m-20 20v-20a10 10 0 1 0-20 0v20a10 10 0 0 0 20 0z m152-660a41 41 0 0 1-40 41h-90a41 41 0 0 1 0-81h90a41 41 0 0 1 40 40z m-40 18a18 18 0 0 0 0-36h-90a18 18 0 0 0 0 36z m263 348a11 11 0 0 1-11 11h-372a11 11 0 0 1 0-22h372a11 11 0 0 1 11 11z m0-55a11 11 0 0 1-11 12h-372a11 11 0 1 1 0-23h372a11 11 0 0 1 11 11z m0-36h-387v-222h387z m-365-22h343v-177h-343z m263-192l94 103a11 11 0 1 1-17 15l-94-103a11 11 0 1 1 17-15z" horiz-adv-x="1000" />

</font>
</defs>
</svg>
